<svg version="1.1" viewBox="0.0 0.0 960.0 540.0" fill="none" stroke="none" stroke-linecap="square" stroke-miterlimit="10" xmlns:xlink="http://www.w3.org/1999/xlink" xmlns="http://www.w3.org/2000/svg"><clipPath id="g1e5a02879ef_0_77.0"><path d="m0 0l960.0 0l0 540.0l-960.0 0l0 -540.0z" clip-rule="nonzero"/></clipPath><g clip-path="url(#g1e5a02879ef_0_77.0)"><path fill="#212121" d="m0 0l960.0 0l0 540.0l-960.0 0z" fill-rule="evenodd"/><path fill="#000000" fill-opacity="0.0" d="m32.72441 46.721786l894.55115 0l0 60.125984l-894.55115 0z" fill-rule="evenodd"/><path fill="#ffffff" d="m44.38066 87.97778l0 -24.046875l17.390625 0l0 2.84375l-14.203125 0l0 7.359375l13.296875 0l0 2.828125l-13.296875 0l0 8.171875l14.765625 0l0 2.84375l-17.953125 0zm21.953644 -20.625l0 -3.421875l2.953125 0l0 3.421875l-2.953125 0zm-3.75 27.390625l0.5625 -2.515625q0.890625 0.234375 1.390625 0.234375q0.90625 0 1.34375 -0.609375q0.453125 -0.59375 0.453125 -2.984375l0 -18.3125l2.953125 0l0 18.375q0 3.21875 -0.84375 4.46875q-1.0625 1.640625 -3.546875 1.640625q-1.1875 0 -2.3125 -0.296875zm23.150955 -12.375l3.046875 0.375q-0.71875 2.671875 -2.671875 4.15625q-1.953125 1.46875 -4.984375 1.46875q-3.828125 0 -6.0625 -2.34375q-2.234375 -2.359375 -2.234375 -6.609375q0 -4.390625 2.25 -6.8125q2.265625 -2.4375 5.875 -2.4375q3.5 0 5.703125 2.375q2.21875 2.375 2.21875 6.6875q0 0.265625 -0.015625 0.796875l-12.984375 0q0.15625 2.875 1.609375 4.40625q1.46875 1.515625 3.65625 1.515625q1.625 0 2.765625 -0.84375q1.15625 -0.859375 1.828125 -2.734375zm-9.703125 -4.78125l9.734375 0q-0.203125 -2.1875 -1.109375 -3.296875q-1.421875 -1.703125 -3.65625 -1.703125q-2.046875 0 -3.4375 1.375q-1.375 1.359375 -1.53125 3.625zm16.433243 10.390625l0 -17.421875l2.65625 0l0 2.640625q1.015625 -1.859375 1.875 -2.4375q0.859375 -0.59375 1.890625 -0.59375q1.5 0 3.03125 0.953125l-1.015625 2.734375q-1.078125 -0.640625 -2.15625 -0.640625q-0.96875 0 -1.75 0.59375q-0.765625 0.578125 -1.09375 1.609375q-0.484375 1.578125 -0.484375 3.4375l0 9.125l-2.953125 0zm22.577606 -6.375l2.90625 0.375q-0.46875 3.0 -2.4375 4.703125q-1.953125 1.6875 -4.8125 1.6875q-3.578125 0 -5.75 -2.328125q-2.171875 -2.34375 -2.171875 -6.703125q0 -2.828125 0.9375 -4.9375q0.9375 -2.125 2.84375 -3.171875q1.90625 -1.0625 4.15625 -1.0625q2.84375 0 4.640625 1.4375q1.8125 1.4375 2.3125 4.078125l-2.875 0.4375q-0.40625 -1.75 -1.453125 -2.640625q-1.03125 -0.890625 -2.515625 -0.890625q-2.21875 0 -3.625 1.609375q-1.390625 1.59375 -1.390625 5.0625q0 3.5 1.34375 5.09375q1.34375 1.59375 3.515625 1.59375q1.734375 0 2.890625 -1.0625q1.171875 -1.078125 1.484375 -3.28125zm5.453125 -14.28125l0 -3.390625l2.953125 0l0 3.390625l-2.953125 0zm0 20.65625l0 -17.421875l2.953125 0l0 17.421875l-2.953125 0zm18.807205 -6.375l2.90625 0.375q-0.46875 3.0 -2.4375 4.703125q-1.953125 1.6875 -4.8125 1.6875q-3.578125 0 -5.75 -2.328125q-2.171875 -2.34375 -2.171875 -6.703125q0 -2.828125 0.9375 -4.9375q0.9375 -2.125 2.84375 -3.171875q1.90625 -1.0625 4.15625 -1.0625q2.84375 0 4.640625 1.4375q1.8125 1.4375 2.3125 4.078125l-2.875 0.4375q-0.40625 -1.75 -1.453125 -2.640625q-1.03125 -0.890625 -2.515625 -0.890625q-2.21875 0 -3.625 1.609375q-1.390625 1.59375 -1.390625 5.0625q0 3.5 1.34375 5.09375q1.34375 1.59375 3.515625 1.59375q1.734375 0 2.890625 -1.0625q1.171875 -1.078125 1.484375 -3.28125zm5.453125 -14.28125l0 -3.390625l2.953125 0l0 3.390625l-2.953125 0zm0 20.65625l0 -17.421875l2.953125 0l0 17.421875l-2.953125 0zm6.338455 -8.703125q0 -4.84375 2.703125 -7.171875q2.234375 -1.9375 5.46875 -1.9375q3.59375 0 5.875 2.359375q2.28125 2.34375 2.28125 6.5q0 3.359375 -1.015625 5.296875q-1.0 1.921875 -2.9375 2.984375q-1.921875 1.0625 -4.203125 1.0625q-3.65625 0 -5.921875 -2.34375q-2.25 -2.34375 -2.25 -6.75zm3.046875 0q0 3.34375 1.453125 5.015625q1.453125 1.65625 3.671875 1.65625q2.203125 0 3.65625 -1.671875q1.46875 -1.671875 1.46875 -5.109375q0 -3.234375 -1.46875 -4.890625q-1.46875 -1.671875 -3.65625 -1.671875q-2.21875 0 -3.671875 1.65625q-1.453125 1.65625 -1.453125 5.015625zm16.214493 9.109375l1.421875 -6.984375l-2.765625 0l0 -2.4375l3.265625 0l1.21875 -5.953125l-4.484375 0l0 -2.453125l4.96875 0l1.421875 -7.03125l2.46875 0l-1.421875 7.03125l5.15625 0l1.4375 -7.03125l2.46875 0l-1.421875 7.03125l2.828125 0l0 2.453125l-3.328125 0l-1.21875 5.953125l4.546875 0l0 2.4375l-5.046875 0l-1.421875 6.984375l-2.46875 0l1.421875 -6.984375l-5.15625 0l-1.421875 6.984375l-2.46875 0zm4.375 -9.421875l5.15625 0l1.234375 -5.953125l-5.171875 0l-1.21875 5.953125zm14.214493 -11.875l0 -2.84375l15.5625 0l0 2.296875q-2.296875 2.4375 -4.5625 6.5q-2.25 4.046875 -3.46875 8.328125q-0.890625 3.015625 -1.140625 6.609375l-3.03125 0q0.046875 -2.84375 1.109375 -6.859375q1.078125 -4.015625 3.0625 -7.75q2.0 -3.734375 4.25 -6.28125l-11.78125 0z" fill-rule="nonzero"/><path fill="#000000" fill-opacity="0.0" d="m32.72441 120.99475l894.55115 0l0 358.67715l-894.55115 0z" fill-rule="evenodd"/><path fill="#adadad" d="m43.677536 155.59474l0 -19.078125l2.53125 0l0 16.828125l9.390625 0l0 2.25l-11.921875 0zm24.09056 -4.453125l2.421875 0.296875q-0.578125 2.125 -2.125 3.296875q-1.546875 1.171875 -3.953125 1.171875q-3.03125 0 -4.8125 -1.859375q-1.78125 -1.875 -1.78125 -5.25q0 -3.484375 1.796875 -5.40625q1.796875 -1.9375 4.671875 -1.9375q2.765625 0 4.515625 1.890625q1.765625 1.890625 1.765625 5.3125q0 0.203125 -0.015625 0.625l-10.3125 0q0.140625 2.28125 1.296875 3.5q1.15625 1.203125 2.890625 1.203125q1.28125 0 2.1875 -0.671875q0.921875 -0.6875 1.453125 -2.171875zm-7.6875 -3.78125l7.71875 0q-0.15625 -1.75 -0.890625 -2.625q-1.125 -1.34375 -2.90625 -1.34375q-1.609375 0 -2.71875 1.078125q-1.09375 1.078125 -1.203125 2.890625zm13.043686 8.234375l0 -13.828125l2.109375 0l0 1.96875q1.53125 -2.28125 4.40625 -2.28125q1.25 0 2.296875 0.453125q1.046875 0.453125 1.5625 1.1875q0.53125 0.71875 0.734375 1.71875q0.125 0.65625 0.125 2.28125l0 8.5l-2.34375 0l0 -8.40625q0 -1.4375 -0.28125 -2.140625q-0.265625 -0.71875 -0.96875 -1.140625q-0.6875 -0.421875 -1.625 -0.421875q-1.484375 0 -2.578125 0.953125q-1.09375 0.953125 -1.09375 3.609375l0 7.546875l-2.34375 0zm14.403061 1.140625l2.28125 0.34375q0.140625 1.046875 0.796875 1.53125q0.859375 0.65625 2.375 0.65625q1.625 0 2.5 -0.65625q0.890625 -0.640625 1.203125 -1.8125q0.1875 -0.71875 0.171875 -3.015625q-1.53125 1.8125 -3.828125 1.8125q-2.84375 0 -4.40625 -2.046875q-1.5625 -2.0625 -1.5625 -4.9375q0 -1.984375 0.71875 -3.65625q0.71875 -1.671875 2.078125 -2.578125q1.359375 -0.921875 3.1875 -0.921875q2.453125 0 4.03125 1.984375l0 -1.671875l2.171875 0l0 11.953125q0 3.234375 -0.65625 4.578125q-0.65625 1.34375 -2.09375 2.125q-1.421875 0.78125 -3.5 0.78125q-2.46875 0 -4.0 -1.109375q-1.515625 -1.109375 -1.46875 -3.359375zm1.9375 -8.296875q0 2.71875 1.078125 3.96875q1.078125 1.25 2.703125 1.25q1.625 0 2.71875 -1.234375q1.09375 -1.25 1.09375 -3.90625q0 -2.546875 -1.125 -3.828125q-1.125 -1.296875 -2.71875 -1.296875q-1.5625 0 -2.65625 1.28125q-1.09375 1.265625 -1.09375 3.765625zm22.37181 7.15625l0 -2.03125q-1.609375 2.34375 -4.375 2.34375q-1.234375 0 -2.296875 -0.46875q-1.0625 -0.46875 -1.578125 -1.171875q-0.5 -0.71875 -0.71875 -1.75q-0.140625 -0.6875 -0.140625 -2.1875l0 -8.5625l2.34375 0l0 7.671875q0 1.828125 0.140625 2.46875q0.21875 0.921875 0.9375 1.453125q0.71875 0.53125 1.765625 0.53125q1.0625 0 1.984375 -0.53125q0.921875 -0.546875 1.296875 -1.46875q0.390625 -0.9375 0.390625 -2.71875l0 -7.40625l2.34375 0l0 13.828125l-2.09375 0zm14.793686 -1.703125q-1.3125 1.109375 -2.515625 1.5625q-1.203125 0.453125 -2.578125 0.453125q-2.28125 0 -3.5 -1.109375q-1.21875 -1.109375 -1.21875 -2.84375q0 -1.015625 0.453125 -1.859375q0.46875 -0.84375 1.21875 -1.34375q0.75 -0.515625 1.6875 -0.765625q0.6875 -0.1875 2.078125 -0.359375q2.828125 -0.328125 4.171875 -0.796875q0.015625 -0.484375 0.015625 -0.625q0 -1.421875 -0.65625 -2.015625q-0.90625 -0.796875 -2.671875 -0.796875q-1.65625 0 -2.453125 0.59375q-0.78125 0.578125 -1.15625 2.046875l-2.296875 -0.3125q0.3125 -1.46875 1.03125 -2.375q0.71875 -0.90625 2.0625 -1.390625q1.359375 -0.5 3.140625 -0.5q1.78125 0 2.875 0.421875q1.109375 0.421875 1.625 1.046875q0.53125 0.625 0.734375 1.59375q0.125 0.59375 0.125 2.15625l0 3.125q0 3.265625 0.140625 4.140625q0.15625 0.859375 0.59375 1.65625l-2.4375 0q-0.375 -0.734375 -0.46875 -1.703125zm-0.203125 -5.234375q-1.265625 0.515625 -3.828125 0.890625q-1.4375 0.203125 -2.046875 0.46875q-0.59375 0.25 -0.921875 0.75q-0.3125 0.5 -0.3125 1.125q0 0.9375 0.703125 1.5625q0.703125 0.625 2.078125 0.625q1.34375 0 2.390625 -0.59375q1.0625 -0.59375 1.5625 -1.625q0.375 -0.796875 0.375 -2.34375l0 -0.859375zm5.996811 -9.421875l0 -2.71875l2.34375 0l0 2.71875l-2.34375 0zm-2.96875 21.71875l0.4375 -1.984375q0.703125 0.171875 1.109375 0.171875q0.71875 0 1.0625 -0.46875q0.359375 -0.46875 0.359375 -2.375l0 -14.53125l2.34375 0l0 14.578125q0 2.5625 -0.671875 3.5625q-0.84375 1.296875 -2.8125 1.296875q-0.953125 0 -1.828125 -0.25zm18.359665 -9.8125l2.421875 0.296875q-0.578125 2.125 -2.125 3.296875q-1.546875 1.171875 -3.953125 1.171875q-3.03125 0 -4.8125 -1.859375q-1.78125 -1.875 -1.78125 -5.25q0 -3.484375 1.796875 -5.40625q1.796875 -1.9375 4.671875 -1.9375q2.765625 0 4.515625 1.890625q1.765625 1.890625 1.765625 5.3125q0 0.203125 -0.015625 0.625l-10.3125 0q0.140625 2.28125 1.296875 3.5q1.15625 1.203125 2.890625 1.203125q1.28125 0 2.1875 -0.671875q0.921875 -0.6875 1.453125 -2.171875zm-7.6875 -3.78125l7.71875 0q-0.15625 -1.75 -0.890625 -2.625q-1.125 -1.34375 -2.90625 -1.34375q-1.609375 0 -2.71875 1.078125q-1.09375 1.078125 -1.203125 2.890625zm29.262146 13.53125l0 -6.765625q-0.546875 0.765625 -1.53125 1.28125q-0.96875 0.5 -2.078125 0.5q-2.46875 0 -4.25 -1.96875q-1.765625 -1.96875 -1.765625 -5.390625q0 -2.078125 0.71875 -3.734375q0.71875 -1.65625 2.09375 -2.5q1.375 -0.859375 3.015625 -0.859375q2.5625 0 4.03125 2.171875l0 -1.859375l2.109375 0l0 19.125l-2.34375 0zm-7.21875 -12.25q0 2.671875 1.109375 4.015625q1.125 1.328125 2.6875 1.328125q1.5 0 2.578125 -1.265625q1.078125 -1.28125 1.078125 -3.859375q0 -2.765625 -1.140625 -4.15625q-1.125 -1.390625 -2.671875 -1.390625q-1.515625 0 -2.578125 1.296875q-1.0625 1.28125 -1.0625 4.03125zm22.293686 6.953125l0 -2.03125q-1.609375 2.34375 -4.375 2.34375q-1.234375 0 -2.296875 -0.46875q-1.0625 -0.46875 -1.578125 -1.171875q-0.5 -0.71875 -0.71875 -1.75q-0.140625 -0.6875 -0.140625 -2.1875l0 -8.5625l2.34375 0l0 7.671875q0 1.828125 0.140625 2.46875q0.21875 0.921875 0.9375 1.453125q0.71875 0.53125 1.765625 0.53125q1.0625 0 1.984375 -0.53125q0.921875 -0.546875 1.296875 -1.46875q0.390625 -0.9375 0.390625 -2.71875l0 -7.40625l2.34375 0l0 13.828125l-2.09375 0zm15.231186 -4.453125l2.421875 0.296875q-0.578125 2.125 -2.125 3.296875q-1.546875 1.171875 -3.953125 1.171875q-3.03125 0 -4.8125 -1.859375q-1.78125 -1.875 -1.78125 -5.25q0 -3.484375 1.796875 -5.40625q1.796875 -1.9375 4.671875 -1.9375q2.765625 0 4.515625 1.890625q1.765625 1.890625 1.765625 5.3125q0 0.203125 -0.015625 0.625l-10.3125 0q0.140625 2.28125 1.296875 3.5q1.15625 1.203125 2.890625 1.203125q1.28125 0 2.1875 -0.671875q0.921875 -0.6875 1.453125 -2.171875zm-7.6875 -3.78125l7.71875 0q-0.15625 -1.75 -0.890625 -2.625q-1.125 -1.34375 -2.90625 -1.34375q-1.609375 0 -2.71875 1.078125q-1.09375 1.078125 -1.203125 2.890625zm19.512146 4.109375l2.328125 -0.359375q0.1875 1.390625 1.078125 2.140625q0.890625 0.734375 2.5 0.734375q1.609375 0 2.390625 -0.65625q0.78125 -0.65625 0.78125 -1.546875q0 -0.796875 -0.6875 -1.25q-0.484375 -0.3125 -2.390625 -0.796875q-2.578125 -0.65625 -3.578125 -1.125q-1.0 -0.46875 -1.515625 -1.3125q-0.515625 -0.84375 -0.515625 -1.859375q0 -0.921875 0.421875 -1.703125q0.4375 -0.796875 1.15625 -1.3125q0.546875 -0.40625 1.484375 -0.6875q0.953125 -0.28125 2.03125 -0.28125q1.625 0 2.859375 0.46875q1.234375 0.46875 1.8125 1.28125q0.59375 0.796875 0.8125 2.140625l-2.296875 0.3125q-0.15625 -1.078125 -0.90625 -1.671875q-0.75 -0.59375 -2.109375 -0.59375q-1.609375 0 -2.3125 0.53125q-0.6875 0.53125 -0.6875 1.25q0 0.453125 0.296875 0.8125q0.28125 0.375 0.890625 0.625q0.359375 0.140625 2.078125 0.609375q2.484375 0.65625 3.46875 1.078125q0.984375 0.421875 1.53125 1.234375q0.5625 0.796875 0.5625 2.0q0 1.171875 -0.6875 2.21875q-0.671875 1.03125 -1.96875 1.59375q-1.28125 0.5625 -2.90625 0.5625q-2.703125 0 -4.125 -1.109375q-1.40625 -1.125 -1.796875 -3.328125zm14.28125 -12.265625l0 -2.6875l2.34375 0l0 2.6875l-2.34375 0zm0 16.390625l0 -13.828125l2.34375 0l0 13.828125l-2.34375 0zm15.37529 -4.453125l2.421875 0.296875q-0.578125 2.125 -2.125 3.296875q-1.546875 1.171875 -3.953125 1.171875q-3.03125 0 -4.8125 -1.859375q-1.78125 -1.875 -1.78125 -5.25q0 -3.484375 1.796875 -5.40625q1.796875 -1.9375 4.671875 -1.9375q2.765625 0 4.515625 1.890625q1.765625 1.890625 1.765625 5.3125q0 0.203125 -0.015625 0.625l-10.3125 0q0.140625 2.28125 1.296875 3.5q1.15625 1.203125 2.890625 1.203125q1.28125 0 2.1875 -0.671875q0.921875 -0.6875 1.453125 -2.171875zm-7.6875 -3.78125l7.71875 0q-0.15625 -1.75 -0.890625 -2.625q-1.125 -1.34375 -2.90625 -1.34375q-1.609375 0 -2.71875 1.078125q-1.09375 1.078125 -1.203125 2.890625zm13.043686 8.234375l0 -13.828125l2.109375 0l0 1.9375q0.640625 -1.015625 1.71875 -1.625q1.09375 -0.625 2.46875 -0.625q1.53125 0 2.515625 0.640625q0.984375 0.640625 1.390625 1.78125q1.640625 -2.421875 4.265625 -2.421875q2.0625 0 3.15625 1.140625q1.109375 1.140625 1.109375 3.515625l0 9.484375l-2.328125 0l0 -8.703125q0 -1.40625 -0.234375 -2.015625q-0.21875 -0.625 -0.828125 -1.0q-0.59375 -0.390625 -1.390625 -0.390625q-1.46875 0 -2.4375 0.96875q-0.953125 0.96875 -0.953125 3.109375l0 8.03125l-2.34375 0l0 -8.984375q0 -1.5625 -0.578125 -2.34375q-0.5625 -0.78125 -1.875 -0.78125q-0.984375 0 -1.828125 0.53125q-0.828125 0.515625 -1.21875 1.515625q-0.375 1.0 -0.375 2.890625l0 7.171875l-2.34375 0zm22.204865 5.296875l0 -19.125l2.140625 0l0 1.796875q0.75 -1.046875 1.703125 -1.578125q0.953125 -0.53125 2.3125 -0.53125q1.765625 0 3.109375 0.921875q1.359375 0.90625 2.046875 2.5625q0.6875 1.65625 0.6875 3.640625q0 2.125 -0.765625 3.828125q-0.75 1.6875 -2.203125 2.59375q-1.453125 0.90625 -3.046875 0.90625q-1.171875 0 -2.109375 -0.484375q-0.921875 -0.5 -1.53125 -1.265625l0 6.734375l-2.34375 0zm2.125 -12.125q0 2.65625 1.078125 3.9375q1.09375 1.28125 2.625 1.28125q1.5625 0 2.671875 -1.3125q1.109375 -1.328125 1.109375 -4.109375q0 -2.640625 -1.09375 -3.953125q-1.078125 -1.3125 -2.59375 -1.3125q-1.484375 0 -2.640625 1.40625q-1.15625 1.390625 -1.15625 4.0625zm12.684296 6.828125l0 -13.828125l2.109375 0l0 2.09375q0.796875 -1.46875 1.484375 -1.9375q0.6875 -0.46875 1.5 -0.46875q1.1875 0 2.40625 0.765625l-0.796875 2.171875q-0.859375 -0.515625 -1.71875 -0.515625q-0.765625 0 -1.390625 0.46875q-0.609375 0.453125 -0.859375 1.28125q-0.390625 1.25 -0.390625 2.734375l0 7.234375l-2.34375 0zm18.361115 -4.453125l2.421875 0.296875q-0.578125 2.125 -2.125 3.296875q-1.546875 1.171875 -3.953125 1.171875q-3.03125 0 -4.8125 -1.859375q-1.78125 -1.875 -1.78125 -5.25q0 -3.484375 1.796875 -5.40625q1.796875 -1.9375 4.671875 -1.9375q2.765625 0 4.515625 1.890625q1.765625 1.890625 1.765625 5.3125q0 0.203125 -0.015625 0.625l-10.3125 0q0.140625 2.28125 1.296875 3.5q1.15625 1.203125 2.890625 1.203125q1.28125 0 2.1875 -0.671875q0.921875 -0.6875 1.453125 -2.171875zm-7.6875 -3.78125l7.71875 0q-0.15625 -1.75 -0.890625 -2.625q-1.125 -1.34375 -2.90625 -1.34375q-1.609375 0 -2.71875 1.078125q-1.09375 1.078125 -1.203125 2.890625zm21.012146 8.234375l0 -12.0l-2.0625 0l0 -1.828125l2.0625 0l0 -1.46875q0 -1.390625 0.25 -2.0625q0.34375 -0.921875 1.1875 -1.484375q0.859375 -0.5625 2.390625 -0.5625q0.984375 0 2.1875 0.234375l-0.34375 2.046875q-0.734375 -0.140625 -1.390625 -0.140625q-1.0625 0 -1.515625 0.46875q-0.4375 0.453125 -0.4375 1.703125l0 1.265625l2.703125 0l0 1.828125l-2.703125 0l0 12.0l-2.328125 0zm5.98407 -6.90625q0 -3.84375 2.125 -5.6875q1.78125 -1.546875 4.34375 -1.546875q2.859375 0 4.65625 1.875q1.8125 1.859375 1.8125 5.15625q0 2.671875 -0.796875 4.203125q-0.796875 1.53125 -2.328125 2.375q-1.53125 0.84375 -3.34375 0.84375q-2.890625 0 -4.6875 -1.859375q-1.78125 -1.859375 -1.78125 -5.359375zm2.40625 0q0 2.65625 1.15625 3.984375q1.15625 1.3125 2.90625 1.3125q1.75 0 2.90625 -1.328125q1.15625 -1.328125 1.15625 -4.046875q0 -2.5625 -1.171875 -3.890625q-1.15625 -1.328125 -2.890625 -1.328125q-1.75 0 -2.90625 1.328125q-1.15625 1.3125 -1.15625 3.96875zm13.262451 6.90625l0 -13.828125l2.109375 0l0 2.09375q0.796875 -1.46875 1.484375 -1.9375q0.6875 -0.46875 1.5 -0.46875q1.1875 0 2.40625 0.765625l-0.796875 2.171875q-0.859375 -0.515625 -1.71875 -0.515625q-0.765625 0 -1.390625 0.46875q-0.609375 0.453125 -0.859375 1.28125q-0.390625 1.25 -0.390625 2.734375l0 7.234375l-2.34375 0zm8.8923645 0l0 -13.828125l2.109375 0l0 1.9375q0.640625 -1.015625 1.71875 -1.625q1.09375 -0.625 2.46875 -0.625q1.53125 0 2.515625 0.640625q0.984375 0.640625 1.390625 1.78125q1.640625 -2.421875 4.265625 -2.421875q2.0625 0 3.15625 1.140625q1.109375 1.140625 1.109375 3.515625l0 9.484375l-2.328125 0l0 -8.703125q0 -1.40625 -0.234375 -2.015625q-0.21875 -0.625 -0.828125 -1.0q-0.59375 -0.390625 -1.390625 -0.390625q-1.46875 0 -2.4375 0.96875q-0.953125 0.96875 -0.953125 3.109375l0 8.03125l-2.34375 0l0 -8.984375q0 -1.5625 -0.578125 -2.34375q-0.5625 -0.78125 -1.875 -0.78125q-0.984375 0 -1.828125 0.53125q-0.828125 0.515625 -1.21875 1.515625q-0.375 1.0 -0.375 2.890625l0 7.171875l-2.34375 0zm31.236115 -1.703125q-1.3125 1.109375 -2.515625 1.5625q-1.203125 0.453125 -2.578125 0.453125q-2.28125 0 -3.5 -1.109375q-1.21875 -1.109375 -1.21875 -2.84375q0 -1.015625 0.453125 -1.859375q0.46875 -0.84375 1.21875 -1.34375q0.75 -0.515625 1.6875 -0.765625q0.6875 -0.1875 2.078125 -0.359375q2.828125 -0.328125 4.171875 -0.796875q0.015625 -0.484375 0.015625 -0.625q0 -1.421875 -0.65625 -2.015625q-0.90625 -0.796875 -2.671875 -0.796875q-1.65625 0 -2.453125 0.59375q-0.78125 0.578125 -1.15625 2.046875l-2.296875 -0.3125q0.3125 -1.46875 1.03125 -2.375q0.71875 -0.90625 2.0625 -1.390625q1.359375 -0.5 3.140625 -0.5q1.78125 0 2.875 0.421875q1.109375 0.421875 1.625 1.046875q0.53125 0.625 0.734375 1.59375q0.125 0.59375 0.125 2.15625l0 3.125q0 3.265625 0.140625 4.140625q0.15625 0.859375 0.59375 1.65625l-2.4375 0q-0.375 -0.734375 -0.46875 -1.703125zm-0.203125 -5.234375q-1.265625 0.515625 -3.828125 0.890625q-1.4375 0.203125 -2.046875 0.46875q-0.59375 0.25 -0.921875 0.75q-0.3125 0.5 -0.3125 1.125q0 0.9375 0.703125 1.5625q0.703125 0.625 2.078125 0.625q1.34375 0 2.390625 -0.59375q1.0625 -0.59375 1.5625 -1.625q0.375 -0.796875 0.375 -2.34375l0 -0.859375zm5.996826 6.9375l0 -13.828125l2.109375 0l0 1.96875q1.53125 -2.28125 4.40625 -2.28125q1.25 0 2.296875 0.453125q1.046875 0.453125 1.5625 1.1875q0.53125 0.71875 0.734375 1.71875q0.125 0.65625 0.125 2.28125l0 8.5l-2.34375 0l0 -8.40625q0 -1.4375 -0.28125 -2.140625q-0.265625 -0.71875 -0.96875 -1.140625q-0.6875 -0.421875 -1.625 -0.421875q-1.484375 0 -2.578125 0.953125q-1.09375 0.953125 -1.09375 3.609375l0 7.546875l-2.34375 0zm31.293396 0l0 -2.03125q-1.609375 2.34375 -4.375 2.34375q-1.234375 0 -2.296875 -0.46875q-1.0625 -0.46875 -1.578125 -1.171875q-0.5 -0.71875 -0.71875 -1.75q-0.140625 -0.6875 -0.140625 -2.1875l0 -8.5625l2.34375 0l0 7.671875q0 1.828125 0.140625 2.46875q0.21875 0.921875 0.9375 1.453125q0.71875 0.53125 1.765625 0.53125q1.0625 0 1.984375 -0.53125q0.921875 -0.546875 1.296875 -1.46875q0.390625 -0.9375 0.390625 -2.71875l0 -7.40625l2.34375 0l0 13.828125l-2.09375 0zm5.762451 0l0 -13.828125l2.109375 0l0 1.96875q1.53125 -2.28125 4.40625 -2.28125q1.25 0 2.296875 0.453125q1.046875 0.453125 1.5625 1.1875q0.53125 0.71875 0.734375 1.71875q0.125 0.65625 0.125 2.28125l0 8.5l-2.34375 0l0 -8.40625q0 -1.4375 -0.28125 -2.140625q-0.265625 -0.71875 -0.96875 -1.140625q-0.6875 -0.421875 -1.625 -0.421875q-1.484375 0 -2.578125 0.953125q-1.09375 0.953125 -1.09375 3.609375l0 7.546875l-2.34375 0zm22.230896 5.296875l0 -19.125l2.140625 0l0 1.796875q0.75 -1.046875 1.703125 -1.578125q0.953125 -0.53125 2.3125 -0.53125q1.765625 0 3.109375 0.921875q1.359375 0.90625 2.046875 2.5625q0.6875 1.65625 0.6875 3.640625q0 2.125 -0.765625 3.828125q-0.75 1.6875 -2.203125 2.59375q-1.453125 0.90625 -3.046875 0.90625q-1.171875 0 -2.109375 -0.484375q-0.921875 -0.5 -1.53125 -1.265625l0 6.734375l-2.34375 0zm2.125 -12.125q0 2.65625 1.078125 3.9375q1.09375 1.28125 2.625 1.28125q1.5625 0 2.671875 -1.3125q1.109375 -1.328125 1.109375 -4.109375q0 -2.640625 -1.09375 -3.953125q-1.078125 -1.3125 -2.59375 -1.3125q-1.484375 0 -2.640625 1.40625q-1.15625 1.390625 -1.15625 4.0625zm21.731201 5.125q-1.3125 1.109375 -2.515625 1.5625q-1.203125 0.453125 -2.578125 0.453125q-2.28125 0 -3.5 -1.109375q-1.21875 -1.109375 -1.21875 -2.84375q0 -1.015625 0.453125 -1.859375q0.46875 -0.84375 1.21875 -1.34375q0.75 -0.515625 1.6875 -0.765625q0.6875 -0.1875 2.078125 -0.359375q2.828125 -0.328125 4.171875 -0.796875q0.015625 -0.484375 0.015625 -0.625q0 -1.421875 -0.65625 -2.015625q-0.90625 -0.796875 -2.671875 -0.796875q-1.65625 0 -2.453125 0.59375q-0.78125 0.578125 -1.15625 2.046875l-2.296875 -0.3125q0.3125 -1.46875 1.03125 -2.375q0.71875 -0.90625 2.0625 -1.390625q1.359375 -0.5 3.140625 -0.5q1.78125 0 2.875 0.421875q1.109375 0.421875 1.625 1.046875q0.53125 0.625 0.734375 1.59375q0.125 0.59375 0.125 2.15625l0 3.125q0 3.265625 0.140625 4.140625q0.15625 0.859375 0.59375 1.65625l-2.4375 0q-0.375 -0.734375 -0.46875 -1.703125zm-0.203125 -5.234375q-1.265625 0.515625 -3.828125 0.890625q-1.4375 0.203125 -2.046875 0.46875q-0.59375 0.25 -0.921875 0.75q-0.3125 0.5 -0.3125 1.125q0 0.9375 0.703125 1.5625q0.703125 0.625 2.078125 0.625q1.34375 0 2.390625 -0.59375q1.0625 -0.59375 1.5625 -1.625q0.375 -0.796875 0.375 -2.34375l0 -0.859375zm5.981201 6.9375l0 -13.828125l2.109375 0l0 2.09375q0.796875 -1.46875 1.484375 -1.9375q0.6875 -0.46875 1.5 -0.46875q1.1875 0 2.40625 0.765625l-0.796875 2.171875q-0.859375 -0.515625 -1.71875 -0.515625q-0.765625 0 -1.390625 0.46875q-0.609375 0.453125 -0.859375 1.28125q-0.390625 1.25 -0.390625 2.734375l0 7.234375l-2.34375 0zm25.26709 0l0 -1.75q-1.3125 2.0625 -3.859375 2.0625q-1.65625 0 -3.046875 -0.90625q-1.375 -0.921875 -2.140625 -2.546875q-0.765625 -1.640625 -0.765625 -3.75q0 -2.078125 0.6875 -3.765625q0.703125 -1.6875 2.078125 -2.578125q1.375 -0.90625 3.078125 -0.90625q1.25 0 2.21875 0.53125q0.984375 0.53125 1.59375 1.375l0 -6.84375l2.34375 0l0 19.078125l-2.1875 0zm-7.40625 -6.890625q0 2.640625 1.125 3.96875q1.125 1.3125 2.640625 1.3125q1.53125 0 2.609375 -1.25q1.078125 -1.265625 1.078125 -3.84375q0 -2.84375 -1.09375 -4.171875q-1.09375 -1.328125 -2.703125 -1.328125q-1.546875 0 -2.609375 1.28125q-1.046875 1.28125 -1.046875 4.03125zm22.731232 2.4375l2.421875 0.296875q-0.578125 2.125 -2.125 3.296875q-1.5469055 1.171875 -3.9531555 1.171875q-3.03125 0 -4.8125 -1.859375q-1.78125 -1.875 -1.78125 -5.25q0 -3.484375 1.796875 -5.40625q1.796875 -1.9375 4.671875 -1.9375q2.765625 0 4.5156555 1.890625q1.765625 1.890625 1.765625 5.3125q0 0.203125 -0.015625 0.625l-10.3125305 0q0.140625 2.28125 1.296875 3.5q1.15625 1.203125 2.890625 1.203125q1.28125 0 2.1875 -0.671875q0.921875 -0.6875 1.4531555 -2.171875zm-7.6875305 -3.78125l7.7187805 0q-0.15625 -1.75 -0.8906555 -2.625q-1.125 -1.34375 -2.90625 -1.34375q-1.609375 0 -2.71875 1.078125q-1.09375 1.078125 -1.203125 2.890625zm20.449677 13.53125l0 -19.125l2.140625 0l0 1.796875q0.75 -1.046875 1.703125 -1.578125q0.953125 -0.53125 2.3125 -0.53125q1.765625 0 3.109375 0.921875q1.359375 0.90625 2.046875 2.5625q0.6875 1.65625 0.6875 3.640625q0 2.125 -0.765625 3.828125q-0.75 1.6875 -2.203125 2.59375q-1.453125 0.90625 -3.046875 0.90625q-1.171875 0 -2.109375 -0.484375q-0.921875 -0.5 -1.53125 -1.265625l0 6.734375l-2.34375 0zm2.125 -12.125q0 2.65625 1.078125 3.9375q1.09375 1.28125 2.625 1.28125q1.5625 0 2.671875 -1.3125q1.109375 -1.328125 1.109375 -4.109375q0 -2.640625 -1.09375 -3.953125q-1.078125 -1.3125 -2.59375 -1.3125q-1.484375 0 -2.640625 1.40625q-1.15625 1.390625 -1.15625 4.0625zm21.731201 5.125q-1.3125 1.109375 -2.515625 1.5625q-1.203125 0.453125 -2.578125 0.453125q-2.28125 0 -3.5 -1.109375q-1.21875 -1.109375 -1.21875 -2.84375q0 -1.015625 0.453125 -1.859375q0.46875 -0.84375 1.21875 -1.34375q0.75 -0.515625 1.6875 -0.765625q0.6875 -0.1875 2.078125 -0.359375q2.828125 -0.328125 4.171875 -0.796875q0.015625 -0.484375 0.015625 -0.625q0 -1.421875 -0.65625 -2.015625q-0.90625 -0.796875 -2.671875 -0.796875q-1.65625 0 -2.453125 0.59375q-0.78125 0.578125 -1.15625 2.046875l-2.296875 -0.3125q0.3125 -1.46875 1.03125 -2.375q0.71875 -0.90625 2.0625 -1.390625q1.359375 -0.5 3.140625 -0.5q1.78125 0 2.875 0.421875q1.109375 0.421875 1.625 1.046875q0.53125 0.625 0.734375 1.59375q0.125 0.59375 0.125 2.15625l0 3.125q0 3.265625 0.140625 4.140625q0.15625 0.859375 0.59375 1.65625l-2.4375 0q-0.375 -0.734375 -0.46875 -1.703125zm-0.203125 -5.234375q-1.265625 0.515625 -3.828125 0.890625q-1.4375 0.203125 -2.046875 0.46875q-0.59375 0.25 -0.921875 0.75q-0.3125 0.5 -0.3125 1.125q0 0.9375 0.703125 1.5625q0.703125 0.625 2.078125 0.625q1.34375 0 2.390625 -0.59375q1.0625 -0.59375 1.5625 -1.625q0.375 -0.796875 0.375 -2.34375l0 -0.859375zm5.981201 6.9375l0 -13.828125l2.109375 0l0 2.09375q0.796875 -1.46875 1.484375 -1.9375q0.6875 -0.46875 1.5 -0.46875q1.1875 0 2.40625 0.765625l-0.796875 2.171875q-0.859375 -0.515625 -1.71875 -0.515625q-0.765625 0 -1.390625 0.46875q-0.609375 0.453125 -0.859375 1.28125q-0.390625 1.25 -0.390625 2.734375l0 7.234375l-2.34375 0zm18.361084 -4.453125l2.421875 0.296875q-0.578125 2.125 -2.125 3.296875q-1.546875 1.171875 -3.953125 1.171875q-3.03125 0 -4.8125 -1.859375q-1.78125 -1.875 -1.78125 -5.25q0 -3.484375 1.796875 -5.40625q1.796875 -1.9375 4.671875 -1.9375q2.765625 0 4.515625 1.890625q1.765625 1.890625 1.765625 5.3125q0 0.203125 -0.015625 0.625l-10.3125 0q0.140625 2.28125 1.296875 3.5q1.15625 1.203125 2.890625 1.203125q1.28125 0 2.1875 -0.671875q0.921875 -0.6875 1.453125 -2.171875zm-7.6875 -3.78125l7.71875 0q-0.15625 -1.75 -0.890625 -2.625q-1.125 -1.34375 -2.90625 -1.34375q-1.609375 0 -2.71875 1.078125q-1.09375 1.078125 -1.203125 2.890625zm2.515625 -7.3125l1.734375 -3.640625l3.0625 0l-2.859375 3.640625l-1.9375 0zm10.528076 15.546875l0 -13.828125l2.109375 0l0 1.96875q1.53125 -2.28125 4.40625 -2.28125q1.25 0 2.296875 0.453125q1.046875 0.453125 1.5625 1.1875q0.53125 0.71875 0.734375 1.71875q0.125 0.65625 0.125 2.28125l0 8.5l-2.34375 0l0 -8.40625q0 -1.4375 -0.28125 -2.140625q-0.265625 -0.71875 -0.96875 -1.140625q-0.6875 -0.421875 -1.625 -0.421875q-1.484375 0 -2.578125 0.953125q-1.09375 0.953125 -1.09375 3.609375l0 7.546875l-2.34375 0zm19.949951 -2.09375l0.328125 2.0625q-0.984375 0.21875 -1.765625 0.21875q-1.265625 0 -1.96875 -0.40625q-0.703125 -0.40625 -1.0 -1.0625q-0.28125 -0.65625 -0.28125 -2.765625l0 -7.953125l-1.71875 0l0 -1.828125l1.71875 0l0 -3.421875l2.328125 -1.40625l0 4.828125l2.359375 0l0 1.828125l-2.359375 0l0 8.078125q0 1.0 0.125 1.296875q0.125 0.28125 0.40625 0.453125q0.28125 0.171875 0.796875 0.171875q0.390625 0 1.03125 -0.09375zm11.749695 -2.359375l2.421875 0.296875q-0.578125 2.125 -2.125 3.296875q-1.546875 1.171875 -3.953125 1.171875q-3.03125 0 -4.8125 -1.859375q-1.78125 -1.875 -1.78125 -5.25q0 -3.484375 1.796875 -5.40625q1.796875 -1.9375 4.671875 -1.9375q2.765625 0 4.515625 1.890625q1.765625 1.890625 1.765625 5.3125q0 0.203125 -0.015625 0.625l-10.3125 0q0.140625 2.28125 1.296875 3.5q1.15625 1.203125 2.890625 1.203125q1.28125 0 2.1875 -0.671875q0.921875 -0.6875 1.453125 -2.171875zm-7.6875 -3.78125l7.71875 0q-0.15625 -1.75 -0.890625 -2.625q-1.125 -1.34375 -2.90625 -1.34375q-1.609375 0 -2.71875 1.078125q-1.09375 1.078125 -1.203125 2.890625zm12.106201 4.109375l2.328125 -0.359375q0.1875 1.390625 1.078125 2.140625q0.890625 0.734375 2.5 0.734375q1.609375 0 2.390625 -0.65625q0.78125 -0.65625 0.78125 -1.546875q0 -0.796875 -0.6875 -1.25q-0.484375 -0.3125 -2.390625 -0.796875q-2.578125 -0.65625 -3.578125 -1.125q-1.0 -0.46875 -1.515625 -1.3125q-0.515625 -0.84375 -0.515625 -1.859375q0 -0.921875 0.421875 -1.703125q0.4375 -0.796875 1.15625 -1.3125q0.546875 -0.40625 1.484375 -0.6875q0.953125 -0.28125 2.03125 -0.28125q1.625 0 2.859375 0.46875q1.234375 0.46875 1.8125 1.28125q0.59375 0.796875 0.8125 2.140625l-2.296875 0.3125q-0.15625 -1.078125 -0.90625 -1.671875q-0.75 -0.59375 -2.109375 -0.59375q-1.609375 0 -2.3125 0.53125q-0.6875 0.53125 -0.6875 1.25q0 0.453125 0.296875 0.8125q0.28125 0.375 0.890625 0.625q0.359375 0.140625 2.078125 0.609375q2.484375 0.65625 3.46875 1.078125q0.984375 0.421875 1.53125 1.234375q0.5625 0.796875 0.5625 2.0q0 1.171875 -0.6875 2.21875q-0.671875 1.03125 -1.96875 1.59375q-1.28125 0.5625 -2.90625 0.5625q-2.703125 0 -4.125 -1.109375q-1.40625 -1.125 -1.796875 -3.328125zm14.28125 -12.265625l0 -2.6875l2.34375 0l0 2.6875l-2.34375 0zm0 16.390625l0 -13.828125l2.34375 0l0 13.828125l-2.34375 0zm4.969055 -4.125l2.328125 -0.359375q0.1875 1.390625 1.078125 2.140625q0.890625 0.734375 2.5 0.734375q1.609375 0 2.390625 -0.65625q0.78125 -0.65625 0.78125 -1.546875q0 -0.796875 -0.6875 -1.25q-0.484375 -0.3125 -2.390625 -0.796875q-2.578125 -0.65625 -3.578125 -1.125q-1.0 -0.46875 -1.515625 -1.3125q-0.515625 -0.84375 -0.515625 -1.859375q0 -0.921875 0.421875 -1.703125q0.4375 -0.796875 1.15625 -1.3125q0.546875 -0.40625 1.484375 -0.6875q0.953125 -0.28125 2.03125 -0.28125q1.625 0 2.859375 0.46875q1.234375 0.46875 1.8125 1.28125q0.59375 0.796875 0.8125 2.140625l-2.296875 0.3125q-0.15625 -1.078125 -0.90625 -1.671875q-0.75 -0.59375 -2.109375 -0.59375q-1.609375 0 -2.3125 0.53125q-0.6875 0.53125 -0.6875 1.25q0 0.453125 0.296875 0.8125q0.28125 0.375 0.890625 0.625q0.359375 0.140625 2.078125 0.609375q2.484375 0.65625 3.46875 1.078125q0.984375 0.421875 1.53125 1.234375q0.5625 0.796875 0.5625 2.0q0 1.171875 -0.6875 2.21875q-0.671875 1.03125 -1.96875 1.59375q-1.28125 0.5625 -2.90625 0.5625q-2.703125 0 -4.125 -1.109375q-1.40625 -1.125 -1.796875 -3.328125z" fill-rule="nonzero"/><path fill="#000000" fill-opacity="0.0" d="m32.72441 212.9685l283.87402 0l0 298.2362l-283.87402 0z" fill-rule="evenodd"/><path fill="#ffffff" d="m51.269104 297.16852l-2.75 0l0 -17.546875q-1.0 0.953125 -2.609375 1.90625q-1.609375 0.9375 -2.90625 1.421875l0 -2.671875q2.3125 -1.078125 4.03125 -2.625q1.734375 -1.546875 2.453125 -3.0l1.78125 0l0 22.515625zm8.595093 0l0 -3.140625l3.140625 0l0 3.140625l-3.140625 0z" fill-rule="nonzero"/><path fill="#ffffff" d="m104.083786 275.94977l0 7.171875l-0.5625 0q-0.28125 -2.0625 -1.0 -3.28125q-0.703125 -1.234375 -2.015625 -1.953125q-1.3125 -0.71875 -2.71875 -0.71875q-1.59375 0 -2.640625 0.984375q-1.03125 0.96875 -1.03125 2.203125q0 0.953125 0.65625 1.734375q0.953125 1.140625 4.515625 3.0625q2.90625 1.546875 3.96875 2.390625q1.0625 0.828125 1.625 1.96875q0.578125 1.125 0.578125 2.359375q0 2.359375 -1.828125 4.0625q-1.828125 1.703125 -4.703125 1.703125q-0.890625 0 -1.6875 -0.125q-0.484375 -0.078125 -1.984375 -0.5625q-1.484375 -0.484375 -1.875 -0.484375q-0.375 0 -0.609375 0.234375q-0.21875 0.21875 -0.328125 0.9375l-0.5625 0l0 -7.109375l0.5625 0q0.40625 2.234375 1.078125 3.34375q0.671875 1.109375 2.046875 1.84375q1.390625 0.734375 3.046875 0.734375q1.90625 0 3.015625 -1.0q1.109375 -1.015625 1.109375 -2.390625q0 -0.765625 -0.421875 -1.546875q-0.421875 -0.78125 -1.296875 -1.453125q-0.609375 -0.46875 -3.265625 -1.953125q-2.65625 -1.5 -3.78125 -2.375q-1.125 -0.890625 -1.71875 -1.953125q-0.578125 -1.078125 -0.578125 -2.359375q0 -2.234375 1.71875 -3.84375q1.71875 -1.625 4.359375 -1.625q1.65625 0 3.5 0.8125q0.859375 0.375 1.21875 0.375q0.390625 0 0.640625 -0.234375q0.25 -0.234375 0.40625 -0.953125l0.5625 0z" fill-rule="nonzero"/><path fill="#ffffff" d="m118.88591 288.5279l0 -2.328125l15.203125 0l0 2.328125l-15.203125 0zm27.42192 0l-12.84375 0l0 -2.328125l12.84375 0l0 2.328125zm-6.09375 -10.703125l8.515625 9.53125l-8.515625 9.546875l-1.9375 -1.65625l4.453125 -4.921875q0.65625 -0.6875 1.046875 -1.0625q0.390625 -0.375 0.96875 -0.734375l0 -2.328125q-0.578125 -0.359375 -0.96875 -0.734375q-0.390625 -0.375 -1.046875 -1.0625l-4.453125 -4.921875l1.9375 -1.65625z" fill-rule="nonzero"/><path fill="#ffffff" d="m170.13991 303.30914l0 0.5625q-2.3125 -1.171875 -3.859375 -2.71875q-2.203125 -2.21875 -3.40625 -5.234375q-1.1875 -3.015625 -1.1875 -6.265625q0 -4.734375 2.34375 -8.640625q2.34375 -3.90625 6.109375 -5.59375l0 0.640625q-1.890625 1.046875 -3.09375 2.859375q-1.203125 1.796875 -1.8125 4.5625q-0.59375 2.765625 -0.59375 5.78125q0 3.265625 0.5 5.953125q0.40625 2.109375 0.96875 3.375q0.5625 1.28125 1.515625 2.453125q0.96875 1.1875 2.515625 2.265625zm15.05751 -27.359375l0 7.171875l-0.5625 0q-0.28125 -2.0625 -1.0 -3.28125q-0.703125 -1.234375 -2.015625 -1.953125q-1.3125 -0.71875 -2.71875 -0.71875q-1.59375 0 -2.640625 0.984375q-1.03125 0.96875 -1.03125 2.203125q0 0.953125 0.65625 1.734375q0.953125 1.140625 4.515625 3.0625q2.90625 1.546875 3.96875 2.390625q1.0625 0.828125 1.625 1.96875q0.578125 1.125 0.578125 2.359375q0 2.359375 -1.828125 4.0625q-1.828125 1.703125 -4.703125 1.703125q-0.890625 0 -1.6875 -0.125q-0.484375 -0.078125 -1.984375 -0.5625q-1.484375 -0.484375 -1.875 -0.484375q-0.375 0 -0.609375 0.234375q-0.21875 0.21875 -0.328125 0.9375l-0.5625 0l0 -7.109375l0.5625 0q0.40625 2.234375 1.078125 3.34375q0.671875 1.109375 2.046875 1.84375q1.390625 0.734375 3.046875 0.734375q1.90625 0 3.015625 -1.0q1.109375 -1.015625 1.109375 -2.390625q0 -0.765625 -0.421875 -1.546875q-0.421875 -0.78125 -1.296875 -1.453125q-0.609375 -0.46875 -3.265625 -1.953125q-2.65625 -1.5 -3.78125 -2.375q-1.125 -0.890625 -1.71875 -1.953125q-0.578125 -1.078125 -0.578125 -2.359375q0 -2.234375 1.71875 -3.84375q1.71875 -1.625 4.359375 -1.625q1.65625 0 3.5 0.8125q0.859375 0.375 1.21875 0.375q0.390625 0 0.640625 -0.234375q0.25 -0.234375 0.40625 -0.953125l0.5625 0zm3.7669678 0.109375l0 -0.640625q2.328125 1.140625 3.875 2.703125q2.1875 2.234375 3.375 5.25q1.1875 3.0 1.1875 6.25q0 4.75 -2.328125 8.65625q-2.328125 3.90625 -6.109375 5.59375l0 -0.5625q1.875 -1.0625 3.09375 -2.859375q1.21875 -1.796875 1.796875 -4.5625q0.59375 -2.78125 0.59375 -5.796875q0 -3.265625 -0.5 -5.953125q-0.375 -2.109375 -0.953125 -3.375q-0.578125 -1.28125 -1.53125 -2.453125q-0.9375 -1.171875 -2.5 -2.25zm24.08876 -0.109375l0 7.171875l-0.5625 0q-0.28125 -2.0625 -1.0 -3.28125q-0.703125 -1.234375 -2.015625 -1.953125q-1.3125 -0.71875 -2.71875 -0.71875q-1.59375 0 -2.640625 0.984375q-1.03125 0.96875 -1.03125 2.203125q0 0.953125 0.65625 1.734375q0.953125 1.140625 4.515625 3.0625q2.90625 1.546875 3.96875 2.390625q1.0625 0.828125 1.625 1.96875q0.578125 1.125 0.578125 2.359375q0 2.359375 -1.828125 4.0625q-1.828125 1.703125 -4.703125 1.703125q-0.890625 0 -1.6875 -0.125q-0.484375 -0.078125 -1.984375 -0.5625q-1.484375 -0.484375 -1.875 -0.484375q-0.375 0 -0.609375 0.234375q-0.21875 0.21875 -0.328125 0.9375l-0.5625 0l0 -7.109375l0.5625 0q0.40625 2.234375 1.078125 3.34375q0.671875 1.109375 2.046875 1.84375q1.390625 0.734375 3.046875 0.734375q1.90625 0 3.015625 -1.0q1.109375 -1.015625 1.109375 -2.390625q0 -0.765625 -0.421875 -1.546875q-0.421875 -0.78125 -1.296875 -1.453125q-0.609375 -0.46875 -3.265625 -1.953125q-2.65625 -1.5 -3.78125 -2.375q-1.125 -0.890625 -1.71875 -1.953125q-0.578125 -1.078125 -0.578125 -2.359375q0 -2.234375 1.71875 -3.84375q1.71875 -1.625 4.359375 -1.625q1.65625 0 3.5 0.8125q0.859375 0.375 1.21875 0.375q0.390625 0 0.640625 -0.234375q0.25 -0.234375 0.40625 -0.953125l0.5625 0z" fill-rule="nonzero"/><path fill="#ffffff" d="m55.362854 339.6479l0 2.640625l-14.8125 0q-0.03125 -1.0 0.3125 -1.90625q0.5625 -1.515625 1.8125 -2.984375q1.25 -1.46875 3.609375 -3.40625q3.65625 -3.0 4.9375 -4.75q1.28125 -1.75 1.28125 -3.3125q0 -1.625 -1.171875 -2.75q-1.171875 -1.125 -3.046875 -1.125q-1.984375 0 -3.1875 1.203125q-1.1875 1.1875 -1.203125 3.296875l-2.828125 -0.296875q0.296875 -3.171875 2.1875 -4.828125q1.890625 -1.65625 5.09375 -1.65625q3.234375 0 5.109375 1.796875q1.875 1.78125 1.875 4.421875q0 1.359375 -0.546875 2.65625q-0.546875 1.296875 -1.828125 2.734375q-1.28125 1.4375 -4.25 3.953125q-2.46875 2.078125 -3.171875 2.828125q-0.703125 0.734375 -1.171875 1.484375l11.0 0zm4.501343 2.640625l0 -3.140625l3.140625 0l0 3.140625l-3.140625 0z" fill-rule="nonzero"/><path fill="#ffffff" d="m106.53691 336.31976q0 1.84375 -0.9375 3.28125q-0.921875 1.4375 -2.671875 2.25q-1.75 0.796875 -4.28125 0.796875q-2.359375 0 -4.28125 -0.71875q-1.921875 -0.71875 -3.28125 -2.03125l1.609375 -1.828125q1.140625 1.046875 2.59375 1.671875q1.453125 0.625 3.40625 0.625q1.328125 0 2.46875 -0.421875q1.140625 -0.4375 1.84375 -1.328125q0.703125 -0.890625 0.703125 -2.25q0 -1.046875 -0.40625 -1.78125q-0.40625 -0.734375 -1.4375 -1.3125q-1.03125 -0.578125 -2.890625 -1.125q-2.125 -0.625 -3.6875 -1.40625q-1.546875 -0.796875 -2.40625 -1.953125q-0.859375 -1.15625 -0.859375 -2.875q0 -1.609375 0.890625 -2.859375q0.90625 -1.25 2.46875 -1.96875q1.578125 -0.71875 3.625 -0.71875q2.25 0 3.890625 0.640625q1.65625 0.640625 3.015625 1.828125l-1.609375 1.765625q-1.15625 -1.03125 -2.484375 -1.484375q-1.328125 -0.46875 -2.71875 -0.46875q-1.171875 0 -2.15625 0.359375q-0.96875 0.34375 -1.5625 1.046875q-0.578125 0.6875 -0.578125 1.765625q0 0.9375 0.5 1.609375q0.5 0.671875 1.6875 1.234375q1.1875 0.546875 3.25 1.15625q1.671875 0.484375 3.09375 1.21875q1.4375 0.71875 2.3125 1.96875q0.890625 1.25 0.890625 3.3125zm24.687592 -2.671875l0 -2.328125l15.203125 0l0 2.328125l-15.203125 0zm27.42192 0l-12.84375 0l0 -2.328125l12.84375 0l0 2.328125zm-6.09375 -10.703125l8.515625 9.53125l-8.515625 9.546875l-1.9375 -1.65625l4.453125 -4.921875q0.65625 -0.6875 1.046875 -1.0625q0.390625 -0.375 0.96875 -0.734375l0 -2.328125q-0.578125 -0.359375 -0.96875 -0.734375q-0.390625 -0.375 -1.046875 -1.0625l-4.453125 -4.921875l1.9375 -1.65625zm43.40634 11.796875l-2.8125 0q-2.109375 0 -3.046875 0.640625q-0.921875 0.640625 -0.921875 2.03125q0 1.375 1.171875 2.21875q1.171875 0.84375 3.25 0.84375q1.796875 0 3.21875 -0.5q1.421875 -0.5 2.578125 -1.3125l1.421875 1.765625q-1.1875 0.90625 -3.09375 1.5625q-1.890625 0.65625 -4.28125 0.65625q-2.03125 0 -3.640625 -0.59375q-1.609375 -0.59375 -2.5625 -1.734375q-0.9375 -1.140625 -0.9375 -2.8125q0 -1.875 1.078125 -2.828125q1.078125 -0.953125 3.0625 -1.21875q-1.71875 -0.359375 -2.59375 -1.3125q-0.859375 -0.96875 -0.859375 -2.3125q0 -1.453125 0.890625 -2.421875q0.90625 -0.984375 2.40625 -1.46875q1.5 -0.5 3.328125 -0.5q1.5625 0 3.28125 0.390625q1.71875 0.390625 3.0 1.296875l-1.34375 1.640625q-1.0625 -0.65625 -2.328125 -0.9375q-1.265625 -0.28125 -2.5 -0.28125q-1.90625 0 -2.96875 0.625q-1.046875 0.625 -1.046875 1.9375q0 1.125 0.96875 1.796875q0.96875 0.671875 2.640625 0.671875l2.96875 0l-0.328125 2.15625z" fill-rule="nonzero"/><path fill="#000000" fill-opacity="0.0" d="m308.33072 203.21785l330.3622 0l0 329.92126l-330.3622 0z" fill-rule="evenodd"/><path fill="#ffab40" d="m323.5651 243.42722q-1.9375 -2.453125 -3.28125 -5.71875q-1.34375 -3.28125 -1.34375 -6.796875q0 -3.109375 1.0 -5.9375q1.171875 -3.296875 3.625 -6.5625l1.671875 0q-1.5625 2.703125 -2.078125 3.859375q-0.796875 1.796875 -1.25 3.75q-0.5625 2.4375 -0.5625 4.90625q0 6.25 3.890625 12.5l-1.671875 0zm5.9392395 0l-1.6875 0q3.890625 -6.25 3.890625 -12.5q0 -2.453125 -0.546875 -4.859375q-0.453125 -1.953125 -1.25 -3.75q-0.5 -1.171875 -2.09375 -3.90625l1.6875 0q2.4375 3.265625 3.609375 6.5625q1.0 2.828125 1.0 5.9375q0 3.515625 -1.34375 6.796875q-1.34375 3.265625 -3.265625 5.71875zm11.8142395 0q-1.9375 -2.453125 -3.28125 -5.71875q-1.34375 -3.28125 -1.34375 -6.796875q0 -3.109375 1.0 -5.9375q1.171875 -3.296875 3.625 -6.5625l1.671875 0q-1.5625 2.703125 -2.078125 3.859375q-0.796875 1.796875 -1.25 3.75q-0.5625 2.4375 -0.5625 4.90625q0 6.25 3.890625 12.5l-1.671875 0zm5.9392395 0l-1.6875 0q3.890625 -6.25 3.890625 -12.5q0 -2.453125 -0.546875 -4.859375q-0.453125 -1.953125 -1.25 -3.75q-0.5 -1.171875 -2.09375 -3.90625l1.6875 0q2.4375 3.265625 3.609375 6.5625q1.0 2.828125 1.0 5.9375q0 3.515625 -1.34375 6.796875q-1.34375 3.265625 -3.265625 5.71875z" fill-rule="nonzero"/><path fill="#ffffff" d="m327.26822 269.81784l-2.34375 0l0 -14.921875q-0.859375 0.796875 -2.234375 1.609375q-1.359375 0.796875 -2.453125 1.203125l0 -2.265625q1.96875 -0.921875 3.4375 -2.234375q1.46875 -1.3125 2.078125 -2.546875l1.515625 0l0 19.15625zm7.2624207 0l0 -2.671875l2.65625 0l0 2.671875q0 1.46875 -0.515625 2.375q-0.515625 0.90625 -1.65625 1.40625l-0.640625 -1.015625q0.734375 -0.3125 1.078125 -0.953125q0.359375 -0.625 0.40625 -1.8125l-1.328125 0zm14.968475 0l-2.34375 0l0 -14.921875q-0.859375 0.796875 -2.234375 1.609375q-1.359375 0.796875 -2.453125 1.203125l0 -2.265625q1.96875 -0.921875 3.4375 -2.234375q1.46875 -1.3125 2.078125 -2.546875l1.515625 0l0 19.15625zm7.2624207 0l0 -2.671875l2.65625 0l0 2.671875q0 1.46875 -0.515625 2.375q-0.515625 0.90625 -1.65625 1.40625l-0.640625 -1.015625q0.734375 -0.3125 1.078125 -0.953125q0.359375 -0.625 0.40625 -1.8125l-1.328125 0zm18.45285 -2.25l0 2.25l-12.609375 0q-0.03125 -0.84375 0.265625 -1.625q0.484375 -1.296875 1.546875 -2.546875q1.0625 -1.25 3.0625 -2.875q3.109375 -2.5625 4.203125 -4.046875q1.09375 -1.5 1.09375 -2.8125q0 -1.40625 -1.0 -2.359375q-0.984375 -0.953125 -2.59375 -0.953125q-1.6875 0 -2.703125 1.015625q-1.015625 1.015625 -1.03125 2.8125l-2.40625 -0.25q0.25 -2.6875 1.859375 -4.09375q1.609375 -1.421875 4.328125 -1.421875q2.75 0 4.34375 1.53125q1.609375 1.515625 1.609375 3.765625q0 1.140625 -0.46875 2.25q-0.46875 1.109375 -1.5625 2.328125q-1.078125 1.21875 -3.609375 3.359375q-2.09375 1.765625 -2.703125 2.40625q-0.59375 0.625 -0.984375 1.265625l9.359375 0zm3.7780457 2.25l0 -2.671875l2.65625 0l0 2.671875q0 1.46875 -0.515625 2.375q-0.515625 0.90625 -1.65625 1.40625l-0.640625 -1.015625q0.734375 -0.3125 1.078125 -0.953125q0.359375 -0.625 0.40625 -1.8125l-1.328125 0zm18.45285 -2.25l0 2.25l-12.609375 0q-0.03125 -0.84375 0.265625 -1.625q0.484375 -1.296875 1.546875 -2.546875q1.0625 -1.25 3.0625 -2.875q3.109375 -2.5625 4.203125 -4.046875q1.09375 -1.5 1.09375 -2.8125q0 -1.40625 -1.0 -2.359375q-0.984375 -0.953125 -2.59375 -0.953125q-1.6875 0 -2.703125 1.015625q-1.015625 1.015625 -1.03125 2.8125l-2.40625 -0.25q0.25 -2.6875 1.859375 -4.09375q1.609375 -1.421875 4.328125 -1.421875q2.75 0 4.34375 1.53125q1.609375 1.515625 1.609375 3.765625q0 1.140625 -0.46875 2.25q-0.46875 1.109375 -1.5625 2.328125q-1.078125 1.21875 -3.609375 3.359375q-2.09375 1.765625 -2.703125 2.40625q-0.59375 0.625 -0.984375 1.265625l9.359375 0zm3.7780457 2.25l0 -2.671875l2.65625 0l0 2.671875q0 1.46875 -0.515625 2.375q-0.515625 0.90625 -1.65625 1.40625l-0.640625 -1.015625q0.734375 -0.3125 1.078125 -0.953125q0.359375 -0.625 0.40625 -1.8125l-1.328125 0zm18.45285 -2.25l0 2.25l-12.609375 0q-0.03125 -0.84375 0.265625 -1.625q0.484375 -1.296875 1.546875 -2.546875q1.0625 -1.25 3.0625 -2.875q3.109375 -2.5625 4.203125 -4.046875q1.09375 -1.5 1.09375 -2.8125q0 -1.40625 -1.0 -2.359375q-0.984375 -0.953125 -2.59375 -0.953125q-1.6875 0 -2.703125 1.015625q-1.015625 1.015625 -1.03125 2.8125l-2.40625 -0.25q0.25 -2.6875 1.859375 -4.09375q1.609375 -1.421875 4.328125 -1.421875q2.75 0 4.34375 1.53125q1.609375 1.515625 1.609375 3.765625q0 1.140625 -0.46875 2.25q-0.46875 1.109375 -1.5625 2.328125q-1.078125 1.21875 -3.609375 3.359375q-2.09375 1.765625 -2.703125 2.40625q-0.59375 0.625 -0.984375 1.265625l9.359375 0z" fill-rule="nonzero"/><path fill="#ffffff" d="m323.5651 307.42722q-1.9375 -2.453125 -3.28125 -5.71875q-1.34375 -3.28125 -1.34375 -6.796875q0 -3.109375 1.0 -5.9375q1.171875 -3.296875 3.625 -6.5625l1.671875 0q-1.5625 2.703125 -2.078125 3.859375q-0.796875 1.796875 -1.25 3.75q-0.5625 2.4375 -0.5625 4.90625q0 6.25 3.890625 12.5l-1.671875 0zm3.8454895 -11.734375l2.375 -0.21875q0.171875 1.4375 0.78125 2.359375q0.625 0.90625 1.921875 1.484375q1.3125 0.5625 2.9375 0.5625q1.4375 0 2.546875 -0.421875q1.109375 -0.4375 1.640625 -1.1875q0.546875 -0.75 0.546875 -1.640625q0 -0.890625 -0.53125 -1.5625q-0.515625 -0.671875 -1.703125 -1.125q-0.765625 -0.296875 -3.40625 -0.921875q-2.625 -0.640625 -3.671875 -1.203125q-1.375 -0.71875 -2.046875 -1.765625q-0.671875 -1.0625 -0.671875 -2.375q0 -1.453125 0.8125 -2.703125q0.828125 -1.265625 2.40625 -1.90625q1.578125 -0.65625 3.5 -0.65625q2.125 0 3.734375 0.6875q1.625 0.671875 2.5 2.0q0.875 1.328125 0.9375 3.015625l-2.421875 0.1875q-0.1875 -1.8125 -1.3125 -2.734375q-1.125 -0.9375 -3.328125 -0.9375q-2.296875 0 -3.34375 0.84375q-1.046875 0.84375 -1.046875 2.03125q0 1.015625 0.75 1.6875q0.71875 0.65625 3.796875 1.359375q3.078125 0.703125 4.234375 1.21875q1.65625 0.765625 2.453125 1.953125q0.796875 1.171875 0.796875 2.703125q0 1.53125 -0.875 2.875q-0.875 1.34375 -2.515625 2.09375q-1.625 0.75 -3.671875 0.75q-2.59375 0 -4.34375 -0.75q-1.75 -0.765625 -2.75 -2.28125q-0.984375 -1.515625 -1.03125 -3.421875zm19.87326 11.734375l-1.6875 0q3.890625 -6.25 3.890625 -12.5q0 -2.453125 -0.546875 -4.859375q-0.453125 -1.953125 -1.25 -3.75q-0.5 -1.171875 -2.09375 -3.90625l1.6875 0q2.4375 3.265625 3.609375 6.5625q1.0 2.828125 1.0 5.9375q0 3.515625 -1.34375 6.796875q-1.34375 3.265625 -3.265625 5.71875zm6.7829895 -11.734375l2.375 -0.21875q0.171875 1.4375 0.78125 2.359375q0.625 0.90625 1.921875 1.484375q1.3125 0.5625 2.9375 0.5625q1.4375 0 2.546875 -0.421875q1.109375 -0.4375 1.640625 -1.1875q0.546875 -0.75 0.546875 -1.640625q0 -0.890625 -0.53125 -1.5625q-0.515625 -0.671875 -1.703125 -1.125q-0.765625 -0.296875 -3.40625 -0.921875q-2.625 -0.640625 -3.671875 -1.203125q-1.375 -0.71875 -2.046875 -1.765625q-0.671875 -1.0625 -0.671875 -2.375q0 -1.453125 0.8125 -2.703125q0.828125 -1.265625 2.40625 -1.90625q1.578125 -0.65625 3.5 -0.65625q2.125 0 3.734375 0.6875q1.625 0.671875 2.5 2.0q0.875 1.328125 0.9375 3.015625l-2.421875 0.1875q-0.1875 -1.8125 -1.3125 -2.734375q-1.125 -0.9375 -3.328125 -0.9375q-2.296875 0 -3.34375 0.84375q-1.046875 0.84375 -1.046875 2.03125q0 1.015625 0.75 1.6875q0.71875 0.65625 3.796875 1.359375q3.078125 0.703125 4.234375 1.21875q1.65625 0.765625 2.453125 1.953125q0.796875 1.171875 0.796875 2.703125q0 1.53125 -0.875 2.875q-0.875 1.34375 -2.515625 2.09375q-1.625 0.75 -3.671875 0.75q-2.59375 0 -4.34375 -0.75q-1.75 -0.765625 -2.75 -2.28125q-0.984375 -1.515625 -1.03125 -3.421875z" fill-rule="nonzero"/><path fill="#ffffff" d="m323.5651 339.42722q-1.9375 -2.453125 -3.28125 -5.71875q-1.34375 -3.28125 -1.34375 -6.796875q0 -3.109375 1.0 -5.9375q1.171875 -3.296875 3.625 -6.5625l1.671875 0q-1.5625 2.703125 -2.078125 3.859375q-0.796875 1.796875 -1.25 3.75q-0.5625 2.4375 -0.5625 4.90625q0 6.25 3.890625 12.5l-1.671875 0zm3.8454895 -11.734375l2.375 -0.21875q0.171875 1.4375 0.78125 2.359375q0.625 0.90625 1.921875 1.484375q1.3125 0.5625 2.9375 0.5625q1.4375 0 2.546875 -0.421875q1.109375 -0.4375 1.640625 -1.1875q0.546875 -0.75 0.546875 -1.640625q0 -0.890625 -0.53125 -1.5625q-0.515625 -0.671875 -1.703125 -1.125q-0.765625 -0.296875 -3.40625 -0.921875q-2.625 -0.640625 -3.671875 -1.203125q-1.375 -0.71875 -2.046875 -1.765625q-0.671875 -1.0625 -0.671875 -2.375q0 -1.453125 0.8125 -2.703125q0.828125 -1.265625 2.40625 -1.90625q1.578125 -0.65625 3.5 -0.65625q2.125 0 3.734375 0.6875q1.625 0.671875 2.5 2.0q0.875 1.328125 0.9375 3.015625l-2.421875 0.1875q-0.1875 -1.8125 -1.3125 -2.734375q-1.125 -0.9375 -3.328125 -0.9375q-2.296875 0 -3.34375 0.84375q-1.046875 0.84375 -1.046875 2.03125q0 1.015625 0.75 1.6875q0.71875 0.65625 3.796875 1.359375q3.078125 0.703125 4.234375 1.21875q1.65625 0.765625 2.453125 1.953125q0.796875 1.171875 0.796875 2.703125q0 1.53125 -0.875 2.875q-0.875 1.34375 -2.515625 2.09375q-1.625 0.75 -3.671875 0.75q-2.59375 0 -4.34375 -0.75q-1.75 -0.765625 -2.75 -2.28125q-0.984375 -1.515625 -1.03125 -3.421875zm19.87326 11.734375l-1.6875 0q3.890625 -6.25 3.890625 -12.5q0 -2.453125 -0.546875 -4.859375q-0.453125 -1.953125 -1.25 -3.75q-0.5 -1.171875 -2.09375 -3.90625l1.6875 0q2.4375 3.265625 3.609375 6.5625q1.0 2.828125 1.0 5.9375q0 3.515625 -1.34375 6.796875q-1.34375 3.265625 -3.265625 5.71875zm11.8142395 0q-1.9375 -2.453125 -3.28125 -5.71875q-1.34375 -3.28125 -1.34375 -6.796875q0 -3.109375 1.0 -5.9375q1.171875 -3.296875 3.625 -6.5625l1.671875 0q-1.5625 2.703125 -2.078125 3.859375q-0.796875 1.796875 -1.25 3.75q-0.5625 2.4375 -0.5625 4.90625q0 6.25 3.890625 12.5l-1.671875 0zm3.8454895 -11.734375l2.375 -0.21875q0.171875 1.4375 0.78125 2.359375q0.625 0.90625 1.921875 1.484375q1.3125 0.5625 2.9375 0.5625q1.4375 0 2.546875 -0.421875q1.109375 -0.4375 1.640625 -1.1875q0.546875 -0.75 0.546875 -1.640625q0 -0.890625 -0.53125 -1.5625q-0.515625 -0.671875 -1.703125 -1.125q-0.765625 -0.296875 -3.40625 -0.921875q-2.625 -0.640625 -3.671875 -1.203125q-1.375 -0.71875 -2.046875 -1.765625q-0.671875 -1.0625 -0.671875 -2.375q0 -1.453125 0.8125 -2.703125q0.828125 -1.265625 2.40625 -1.90625q1.578125 -0.65625 3.5 -0.65625q2.125 0 3.734375 0.6875q1.625 0.671875 2.5 2.0q0.875 1.328125 0.9375 3.015625l-2.421875 0.1875q-0.1875 -1.8125 -1.3125 -2.734375q-1.125 -0.9375 -3.328125 -0.9375q-2.296875 0 -3.34375 0.84375q-1.046875 0.84375 -1.046875 2.03125q0 1.015625 0.75 1.6875q0.71875 0.65625 3.796875 1.359375q3.078125 0.703125 4.234375 1.21875q1.65625 0.765625 2.453125 1.953125q0.796875 1.171875 0.796875 2.703125q0 1.53125 -0.875 2.875q-0.875 1.34375 -2.515625 2.09375q-1.625 0.75 -3.671875 0.75q-2.59375 0 -4.34375 -0.75q-1.75 -0.765625 -2.75 -2.28125q-0.984375 -1.515625 -1.03125 -3.421875zm19.87326 11.734375l-1.6875 0q3.890625 -6.25 3.890625 -12.5q0 -2.453125 -0.546875 -4.859375q-0.453125 -1.953125 -1.25 -3.75q-0.5 -1.171875 -2.09375 -3.90625l1.6875 0q2.4375 3.265625 3.609375 6.5625q1.0 2.828125 1.0 5.9375q0 3.515625 -1.34375 6.796875q-1.34375 3.265625 -3.265625 5.71875zm6.7829895 -11.734375l2.375 -0.21875q0.171875 1.4375 0.78125 2.359375q0.625 0.90625 1.921875 1.484375q1.3125 0.5625 2.9375 0.5625q1.4375 0 2.546875 -0.421875q1.109375 -0.4375 1.640625 -1.1875q0.546875 -0.75 0.546875 -1.640625q0 -0.890625 -0.53125 -1.5625q-0.515625 -0.671875 -1.703125 -1.125q-0.765625 -0.296875 -3.40625 -0.921875q-2.625 -0.640625 -3.671875 -1.203125q-1.375 -0.71875 -2.046875 -1.765625q-0.671875 -1.0625 -0.671875 -2.375q0 -1.453125 0.8125 -2.703125q0.828125 -1.265625 2.40625 -1.90625q1.578125 -0.65625 3.5 -0.65625q2.125 0 3.734375 0.6875q1.625 0.671875 2.5 2.0q0.875 1.328125 0.9375 3.015625l-2.421875 0.1875q-0.1875 -1.8125 -1.3125 -2.734375q-1.125 -0.9375 -3.328125 -0.9375q-2.296875 0 -3.34375 0.84375q-1.046875 0.84375 -1.046875 2.03125q0 1.015625 0.75 1.6875q0.71875 0.65625 3.796875 1.359375q3.078125 0.703125 4.234375 1.21875q1.65625 0.765625 2.453125 1.953125q0.796875 1.171875 0.796875 2.703125q0 1.53125 -0.875 2.875q-0.875 1.34375 -2.515625 2.09375q-1.625 0.75 -3.671875 0.75q-2.59375 0 -4.34375 -0.75q-1.75 -0.765625 -2.75 -2.28125q-0.984375 -1.515625 -1.03125 -3.421875z" fill-rule="nonzero"/><path fill="#ffffff" d="m323.5651 371.42722q-1.9375 -2.453125 -3.28125 -5.71875q-1.34375 -3.28125 -1.34375 -6.796875q0 -3.109375 1.0 -5.9375q1.171875 -3.296875 3.625 -6.5625l1.671875 0q-1.5625 2.703125 -2.078125 3.859375q-0.796875 1.796875 -1.25 3.75q-0.5625 2.4375 -0.5625 4.90625q0 6.25 3.890625 12.5l-1.671875 0zm5.9392395 0l-1.6875 0q3.890625 -6.25 3.890625 -12.5q0 -2.453125 -0.546875 -4.859375q-0.453125 -1.953125 -1.25 -3.75q-0.5 -1.171875 -2.09375 -3.90625l1.6875 0q2.4375 3.265625 3.609375 6.5625q1.0 2.828125 1.0 5.9375q0 3.515625 -1.34375 6.796875q-1.34375 3.265625 -3.265625 5.71875zm11.8142395 0q-1.9375 -2.453125 -3.28125 -5.71875q-1.34375 -3.28125 -1.34375 -6.796875q0 -3.109375 1.0 -5.9375q1.171875 -3.296875 3.625 -6.5625l1.671875 0q-1.5625 2.703125 -2.078125 3.859375q-0.796875 1.796875 -1.25 3.75q-0.5625 2.4375 -0.5625 4.90625q0 6.25 3.890625 12.5l-1.671875 0zm3.8454895 -11.734375l2.375 -0.21875q0.171875 1.4375 0.78125 2.359375q0.625 0.90625 1.921875 1.484375q1.3125 0.5625 2.9375 0.5625q1.4375 0 2.546875 -0.421875q1.109375 -0.4375 1.640625 -1.1875q0.546875 -0.75 0.546875 -1.640625q0 -0.890625 -0.53125 -1.5625q-0.515625 -0.671875 -1.703125 -1.125q-0.765625 -0.296875 -3.40625 -0.921875q-2.625 -0.640625 -3.671875 -1.203125q-1.375 -0.71875 -2.046875 -1.765625q-0.671875 -1.0625 -0.671875 -2.375q0 -1.453125 0.8125 -2.703125q0.828125 -1.265625 2.40625 -1.90625q1.578125 -0.65625 3.5 -0.65625q2.125 0 3.734375 0.6875q1.625 0.671875 2.5 2.0q0.875 1.328125 0.9375 3.015625l-2.421875 0.1875q-0.1875 -1.8125 -1.3125 -2.734375q-1.125 -0.9375 -3.328125 -0.9375q-2.296875 0 -3.34375 0.84375q-1.046875 0.84375 -1.046875 2.03125q0 1.015625 0.75 1.6875q0.71875 0.65625 3.796875 1.359375q3.078125 0.703125 4.234375 1.21875q1.65625 0.765625 2.453125 1.953125q0.796875 1.171875 0.796875 2.703125q0 1.53125 -0.875 2.875q-0.875 1.34375 -2.515625 2.09375q-1.625 0.75 -3.671875 0.75q-2.59375 0 -4.34375 -0.75q-1.75 -0.765625 -2.75 -2.28125q-0.984375 -1.515625 -1.03125 -3.421875zm19.87326 11.734375l-1.6875 0q3.890625 -6.25 3.890625 -12.5q0 -2.453125 -0.546875 -4.859375q-0.453125 -1.953125 -1.25 -3.75q-0.5 -1.171875 -2.09375 -3.90625l1.6875 0q2.4375 3.265625 3.609375 6.5625q1.0 2.828125 1.0 5.9375q0 3.515625 -1.34375 6.796875q-1.34375 3.265625 -3.265625 5.71875zm6.7829895 -11.734375l2.375 -0.21875q0.171875 1.4375 0.78125 2.359375q0.625 0.90625 1.921875 1.484375q1.3125 0.5625 2.9375 0.5625q1.4375 0 2.546875 -0.421875q1.109375 -0.4375 1.640625 -1.1875q0.546875 -0.75 0.546875 -1.640625q0 -0.890625 -0.53125 -1.5625q-0.515625 -0.671875 -1.703125 -1.125q-0.765625 -0.296875 -3.40625 -0.921875q-2.625 -0.640625 -3.671875 -1.203125q-1.375 -0.71875 -2.046875 -1.765625q-0.671875 -1.0625 -0.671875 -2.375q0 -1.453125 0.8125 -2.703125q0.828125 -1.265625 2.40625 -1.90625q1.578125 -0.65625 3.5 -0.65625q2.125 0 3.734375 0.6875q1.625 0.671875 2.5 2.0q0.875 1.328125 0.9375 3.015625l-2.421875 0.1875q-0.1875 -1.8125 -1.3125 -2.734375q-1.125 -0.9375 -3.328125 -0.9375q-2.296875 0 -3.34375 0.84375q-1.046875 0.84375 -1.046875 2.03125q0 1.015625 0.75 1.6875q0.71875 0.65625 3.796875 1.359375q3.078125 0.703125 4.234375 1.21875q1.65625 0.765625 2.453125 1.953125q0.796875 1.171875 0.796875 2.703125q0 1.53125 -0.875 2.875q-0.875 1.34375 -2.515625 2.09375q-1.625 0.75 -3.671875 0.75q-2.59375 0 -4.34375 -0.75q-1.75 -0.765625 -2.75 -2.28125q-0.984375 -1.515625 -1.03125 -3.421875z" fill-rule="nonzero"/><path fill="#ffffff" d="m323.5651 403.42722q-1.9375 -2.453125 -3.28125 -5.71875q-1.34375 -3.28125 -1.34375 -6.796875q0 -3.109375 1.0 -5.9375q1.171875 -3.296875 3.625 -6.5625l1.671875 0q-1.5625 2.703125 -2.078125 3.859375q-0.796875 1.796875 -1.25 3.75q-0.5625 2.4375 -0.5625 4.90625q0 6.25 3.890625 12.5l-1.671875 0zm5.9392395 0l-1.6875 0q3.890625 -6.25 3.890625 -12.5q0 -2.453125 -0.546875 -4.859375q-0.453125 -1.953125 -1.25 -3.75q-0.5 -1.171875 -2.09375 -3.90625l1.6875 0q2.4375 3.265625 3.609375 6.5625q1.0 2.828125 1.0 5.9375q0 3.515625 -1.34375 6.796875q-1.34375 3.265625 -3.265625 5.71875zm11.8142395 0q-1.9375 -2.453125 -3.28125 -5.71875q-1.34375 -3.28125 -1.34375 -6.796875q0 -3.109375 1.0 -5.9375q1.171875 -3.296875 3.625 -6.5625l1.671875 0q-1.5625 2.703125 -2.078125 3.859375q-0.796875 1.796875 -1.25 3.75q-0.5625 2.4375 -0.5625 4.90625q0 6.25 3.890625 12.5l-1.671875 0zm5.9392395 0l-1.6875 0q3.890625 -6.25 3.890625 -12.5q0 -2.453125 -0.546875 -4.859375q-0.453125 -1.953125 -1.25 -3.75q-0.5 -1.171875 -2.09375 -3.90625l1.6875 0q2.4375 3.265625 3.609375 6.5625q1.0 2.828125 1.0 5.9375q0 3.515625 -1.34375 6.796875q-1.34375 3.265625 -3.265625 5.71875zm6.7829895 -11.734375l2.375 -0.21875q0.171875 1.4375 0.78125 2.359375q0.625 0.90625 1.921875 1.484375q1.3125 0.5625 2.9375 0.5625q1.4375 0 2.546875 -0.421875q1.109375 -0.4375 1.640625 -1.1875q0.546875 -0.75 0.546875 -1.640625q0 -0.890625 -0.53125 -1.5625q-0.515625 -0.671875 -1.703125 -1.125q-0.765625 -0.296875 -3.40625 -0.921875q-2.625 -0.640625 -3.671875 -1.203125q-1.375 -0.71875 -2.046875 -1.765625q-0.671875 -1.0625 -0.671875 -2.375q0 -1.453125 0.8125 -2.703125q0.828125 -1.265625 2.40625 -1.90625q1.578125 -0.65625 3.5 -0.65625q2.125 0 3.734375 0.6875q1.625 0.671875 2.5 2.0q0.875 1.328125 0.9375 3.015625l-2.421875 0.1875q-0.1875 -1.8125 -1.3125 -2.734375q-1.125 -0.9375 -3.328125 -0.9375q-2.296875 0 -3.34375 0.84375q-1.046875 0.84375 -1.046875 2.03125q0 1.015625 0.75 1.6875q0.71875 0.65625 3.796875 1.359375q3.078125 0.703125 4.234375 1.21875q1.65625 0.765625 2.453125 1.953125q0.796875 1.171875 0.796875 2.703125q0 1.53125 -0.875 2.875q-0.875 1.34375 -2.515625 2.09375q-1.625 0.75 -3.671875 0.75q-2.59375 0 -4.34375 -0.75q-1.75 -0.765625 -2.75 -2.28125q-0.984375 -1.515625 -1.03125 -3.421875z" fill-rule="nonzero"/><path fill="#ffffff" d="m323.5651 435.42722q-1.9375 -2.453125 -3.28125 -5.71875q-1.34375 -3.28125 -1.34375 -6.796875q0 -3.109375 1.0 -5.9375q1.171875 -3.296875 3.625 -6.5625l1.671875 0q-1.5625 2.703125 -2.078125 3.859375q-0.796875 1.796875 -1.25 3.75q-0.5625 2.4375 -0.5625 4.90625q0 6.25 3.890625 12.5l-1.671875 0zm5.9392395 0l-1.6875 0q3.890625 -6.25 3.890625 -12.5q0 -2.453125 -0.546875 -4.859375q-0.453125 -1.953125 -1.25 -3.75q-0.5 -1.171875 -2.09375 -3.90625l1.6875 0q2.4375 3.265625 3.609375 6.5625q1.0 2.828125 1.0 5.9375q0 3.515625 -1.34375 6.796875q-1.34375 3.265625 -3.265625 5.71875zm11.8142395 0q-1.9375 -2.453125 -3.28125 -5.71875q-1.34375 -3.28125 -1.34375 -6.796875q0 -3.109375 1.0 -5.9375q1.171875 -3.296875 3.625 -6.5625l1.671875 0q-1.5625 2.703125 -2.078125 3.859375q-0.796875 1.796875 -1.25 3.75q-0.5625 2.4375 -0.5625 4.90625q0 6.25 3.890625 12.5l-1.671875 0zm5.9392395 0l-1.6875 0q3.890625 -6.25 3.890625 -12.5q0 -2.453125 -0.546875 -4.859375q-0.453125 -1.953125 -1.25 -3.75q-0.5 -1.171875 -2.09375 -3.90625l1.6875 0q2.4375 3.265625 3.609375 6.5625q1.0 2.828125 1.0 5.9375q0 3.515625 -1.34375 6.796875q-1.34375 3.265625 -3.265625 5.71875z" fill-rule="nonzero"/><path fill="#000000" fill-opacity="0.0" d="m0 504.3596l320.7244 0l0 28.787384l-320.7244 0z" fill-rule="evenodd"/><path fill="#ffffff" d="m18.390625 529.7015l0 1.578125l-8.828125 0q-0.015625 -0.59375 0.1875 -1.140625q0.34375 -0.90625 1.078125 -1.78125q0.75 -0.875 2.15625 -2.015625q2.171875 -1.78125 2.9375 -2.828125q0.765625 -1.046875 0.765625 -1.96875q0 -0.984375 -0.703125 -1.640625q-0.6875 -0.671875 -1.8125 -0.671875q-1.1875 0 -1.90625 0.71875q-0.703125 0.703125 -0.703125 1.953125l-1.6875 -0.171875q0.171875 -1.890625 1.296875 -2.875q1.140625 -0.984375 3.03125 -0.984375q1.921875 0 3.046875 1.0625q1.125 1.0625 1.125 2.640625q0 0.796875 -0.328125 1.578125q-0.328125 0.78125 -1.09375 1.640625q-0.75 0.84375 -2.53125 2.34375q-1.46875 1.234375 -1.890625 1.6875q-0.421875 0.4375 -0.6875 0.875l6.546875 0zm1.7663422 -5.015625q0 -2.359375 0.484375 -3.796875q0.484375 -1.453125 1.4375 -2.234375q0.96875 -0.78125 2.421875 -0.78125q1.078125 0 1.890625 0.4375q0.8125 0.421875 1.328125 1.25q0.53125 0.8125 0.828125 1.984375q0.3125 1.15625 0.3125 3.140625q0 2.359375 -0.484375 3.8125q-0.484375 1.4375 -1.453125 2.234375q-0.953125 0.78125 -2.421875 0.78125q-1.921875 0 -3.03125 -1.390625q-1.3125 -1.671875 -1.3125 -5.4375zm1.671875 0q0 3.296875 0.765625 4.390625q0.78125 1.078125 1.90625 1.078125q1.140625 0 1.90625 -1.09375q0.765625 -1.09375 0.765625 -4.375q0 -3.296875 -0.765625 -4.375q-0.765625 -1.078125 -1.921875 -1.078125q-1.125 0 -1.796875 0.953125q-0.859375 1.21875 -0.859375 4.5zm14.875717 6.59375l-1.640625 0l0 -10.453125q-0.59375 0.5625 -1.5625 1.140625q-0.953125 0.5625 -1.71875 0.84375l0 -1.59375q1.375 -0.640625 2.40625 -1.5625q1.03125 -0.921875 1.453125 -1.78125l1.0625 0l0 13.40625zm12.703842 -10.078125l-1.625 0.125q-0.21875 -0.96875 -0.625 -1.40625q-0.65625 -0.703125 -1.640625 -0.703125q-0.78125 0 -1.375 0.4375q-0.765625 0.5625 -1.21875 1.65625q-0.453125 1.078125 -0.46875 3.078125q0.59375 -0.890625 1.453125 -1.328125q0.859375 -0.4375 1.796875 -0.4375q1.640625 0 2.78125 1.203125q1.15625 1.203125 1.15625 3.109375q0 1.265625 -0.546875 2.34375q-0.53125 1.078125 -1.484375 1.65625q-0.9375 0.578125 -2.140625 0.578125q-2.0625 0 -3.359375 -1.5q-1.28125 -1.515625 -1.28125 -4.984375q0 -3.875 1.421875 -5.625q1.25 -1.53125 3.375 -1.53125q1.5625 0 2.5625 0.890625q1.015625 0.875 1.21875 2.4375zm-6.6875 5.75q0 0.84375 0.359375 1.625q0.359375 0.765625 1.0 1.171875q0.640625 0.40625 1.359375 0.40625q1.03125 0 1.78125 -0.828125q0.75 -0.84375 0.75 -2.28125q0 -1.390625 -0.734375 -2.1875q-0.734375 -0.796875 -1.859375 -0.796875q-1.109375 0 -1.890625 0.796875q-0.765625 0.796875 -0.765625 2.09375zm8.563217 0.796875l1.640625 -0.21875q0.28125 1.40625 0.953125 2.015625q0.6875 0.609375 1.65625 0.609375q1.15625 0 1.953125 -0.796875q0.796875 -0.796875 0.796875 -1.984375q0 -1.125 -0.734375 -1.859375q-0.734375 -0.734375 -1.875 -0.734375q-0.46875 0 -1.15625 0.171875l0.1875 -1.4375q0.15625 0.015625 0.265625 0.015625q1.046875 0 1.875 -0.546875q0.84375 -0.546875 0.84375 -1.671875q0 -0.90625 -0.609375 -1.5q-0.609375 -0.59375 -1.578125 -0.59375q-0.953125 0 -1.59375 0.609375q-0.640625 0.59375 -0.8125 1.796875l-1.640625 -0.296875q0.296875 -1.640625 1.359375 -2.546875q1.0625 -0.90625 2.65625 -0.90625q1.09375 0 2.0 0.46875q0.921875 0.46875 1.40625 1.28125q0.5 0.8125 0.5 1.71875q0 0.859375 -0.46875 1.578125q-0.46875 0.703125 -1.375 1.125q1.1875 0.28125 1.84375 1.140625q0.65625 0.859375 0.65625 2.15625q0 1.734375 -1.28125 2.953125q-1.265625 1.21875 -3.21875 1.21875q-1.765625 0 -2.921875 -1.046875q-1.15625 -1.046875 -1.328125 -2.71875zm10.375717 -3.0625q0 -2.359375 0.484375 -3.796875q0.484375 -1.453125 1.4375 -2.234375q0.96875 -0.78125 2.421875 -0.78125q1.078125 0 1.890625 0.4375q0.8125 0.421875 1.328125 1.25q0.53125 0.8125 0.828125 1.984375q0.3125 1.15625 0.3125 3.140625q0 2.359375 -0.484375 3.8125q-0.484375 1.4375 -1.453125 2.234375q-0.953125 0.78125 -2.421875 0.78125q-1.921875 0 -3.03125 -1.390625q-1.3125 -1.671875 -1.3125 -5.4375zm1.671875 0q0 3.296875 0.765625 4.390625q0.78125 1.078125 1.90625 1.078125q1.140625 0 1.90625 -1.09375q0.765625 -1.09375 0.765625 -4.375q0 -3.296875 -0.765625 -4.375q-0.765625 -1.078125 -1.921875 -1.078125q-1.125 0 -1.796875 0.953125q-0.859375 1.21875 -0.859375 4.5zm11.219467 -0.640625q-1.015625 -0.375 -1.515625 -1.0625q-0.484375 -0.703125 -0.484375 -1.671875q0 -1.453125 1.046875 -2.4375q1.046875 -1.0 2.78125 -1.0q1.75 0 2.8125 1.015625q1.078125 1.015625 1.078125 2.46875q0 0.9375 -0.5 1.625q-0.484375 0.6875 -1.46875 1.0625q1.21875 0.390625 1.859375 1.28125q0.65625 0.890625 0.65625 2.140625q0 1.703125 -1.21875 2.875q-1.21875 1.171875 -3.1875 1.171875q-1.984375 0 -3.203125 -1.171875q-1.203125 -1.171875 -1.203125 -2.921875q0 -1.3125 0.65625 -2.1875q0.671875 -0.875 1.890625 -1.1875zm-0.328125 -2.78125q0 0.9375 0.609375 1.546875q0.609375 0.59375 1.59375 0.59375q0.9375 0 1.546875 -0.59375q0.609375 -0.59375 0.609375 -1.453125q0 -0.90625 -0.625 -1.515625q-0.625 -0.625 -1.5625 -0.625q-0.9375 0 -1.5625 0.609375q-0.609375 0.59375 -0.609375 1.4375zm-0.53125 6.15625q0 0.703125 0.328125 1.359375q0.34375 0.65625 1.0 1.015625q0.65625 0.359375 1.40625 0.359375q1.171875 0 1.9375 -0.75q0.765625 -0.75 0.765625 -1.921875q0 -1.1875 -0.796875 -1.953125q-0.78125 -0.78125 -1.953125 -0.78125q-1.15625 0 -1.921875 0.765625q-0.765625 0.765625 -0.765625 1.90625zm8.719467 0.328125l1.640625 -0.21875q0.28125 1.40625 0.953125 2.015625q0.6875 0.609375 1.65625 0.609375q1.15625 0 1.953125 -0.796875q0.796875 -0.796875 0.796875 -1.984375q0 -1.125 -0.734375 -1.859375q-0.734375 -0.734375 -1.875 -0.734375q-0.46875 0 -1.15625 0.171875l0.1875 -1.4375q0.15625 0.015625 0.265625 0.015625q1.046875 0 1.875 -0.546875q0.84375 -0.546875 0.84375 -1.671875q0 -0.90625 -0.609375 -1.5q-0.609375 -0.59375 -1.578125 -0.59375q-0.953125 0 -1.59375 0.609375q-0.640625 0.59375 -0.8125 1.796875l-1.640625 -0.296875q0.296875 -1.640625 1.359375 -2.546875q1.0625 -0.90625 2.65625 -0.90625q1.09375 0 2.0 0.46875q0.921875 0.46875 1.40625 1.28125q0.5 0.8125 0.5 1.71875q0 0.859375 -0.46875 1.578125q-0.46875 0.703125 -1.375 1.125q1.1875 0.28125 1.84375 1.140625q0.65625 0.859375 0.65625 2.15625q0 1.734375 -1.28125 2.953125q-1.265625 1.21875 -3.21875 1.21875q-1.765625 0 -2.921875 -1.046875q-1.15625 -1.046875 -1.328125 -2.71875zm18.985092 1.953125l0 1.578125l-8.828125 0q-0.015625 -0.59375 0.1875 -1.140625q0.34375 -0.90625 1.078125 -1.78125q0.75 -0.875 2.15625 -2.015625q2.171875 -1.78125 2.9375 -2.828125q0.765625 -1.046875 0.765625 -1.96875q0 -0.984375 -0.703125 -1.640625q-0.6875 -0.671875 -1.8125 -0.671875q-1.1875 0 -1.90625 0.71875q-0.703125 0.703125 -0.703125 1.953125l-1.6875 -0.171875q0.171875 -1.890625 1.296875 -2.875q1.140625 -0.984375 3.03125 -0.984375q1.921875 0 3.046875 1.0625q1.125 1.0625 1.125 2.640625q0 0.796875 -0.328125 1.578125q-0.328125 0.78125 -1.09375 1.640625q-0.75 0.84375 -2.53125 2.34375q-1.46875 1.234375 -1.890625 1.6875q-0.421875 0.4375 -0.6875 0.875l6.546875 0zm17.137146 -3.109375l1.765625 0.453125q-0.5625 2.171875 -2.0 3.328125q-1.4375 1.140625 -3.53125 1.140625q-2.15625 0 -3.515625 -0.875q-1.34375 -0.890625 -2.0625 -2.546875q-0.703125 -1.671875 -0.703125 -3.59375q0 -2.078125 0.796875 -3.625q0.796875 -1.5625 2.265625 -2.359375q1.484375 -0.8125 3.25 -0.8125q2.0 0 3.359375 1.015625q1.375 1.015625 1.90625 2.875l-1.734375 0.40625q-0.46875 -1.453125 -1.359375 -2.109375q-0.875 -0.671875 -2.203125 -0.671875q-1.546875 0 -2.578125 0.734375q-1.03125 0.734375 -1.453125 1.984375q-0.421875 1.234375 -0.421875 2.5625q0 1.703125 0.5 2.96875q0.5 1.265625 1.546875 1.90625q1.046875 0.625 2.265625 0.625q1.484375 0 2.515625 -0.859375q1.03125 -0.859375 1.390625 -2.546875zm10.051071 3.5q-0.921875 0.765625 -1.765625 1.09375q-0.828125 0.3125 -1.796875 0.3125q-1.59375 0 -2.453125 -0.78125q-0.859375 -0.78125 -0.859375 -1.984375q0 -0.71875 0.328125 -1.296875q0.328125 -0.59375 0.84375 -0.9375q0.53125 -0.359375 1.1875 -0.546875q0.46875 -0.125 1.453125 -0.25q1.984375 -0.234375 2.921875 -0.5625q0.015625 -0.34375 0.015625 -0.421875q0 -1.0 -0.46875 -1.421875q-0.625 -0.546875 -1.875 -0.546875q-1.15625 0 -1.703125 0.40625q-0.546875 0.40625 -0.8125 1.421875l-1.609375 -0.21875q0.21875 -1.015625 0.71875 -1.640625q0.5 -0.640625 1.453125 -0.984375q0.953125 -0.34375 2.1875 -0.34375q1.25 0 2.015625 0.296875q0.78125 0.28125 1.140625 0.734375q0.375 0.4375 0.515625 1.109375q0.078125 0.421875 0.078125 1.515625l0 2.1875q0 2.28125 0.109375 2.890625q0.109375 0.59375 0.40625 1.15625l-1.703125 0q-0.265625 -0.515625 -0.328125 -1.1875zm-0.140625 -3.671875q-0.890625 0.375 -2.671875 0.625q-1.015625 0.140625 -1.4375 0.328125q-0.421875 0.1875 -0.65625 0.53125q-0.21875 0.34375 -0.21875 0.78125q0 0.65625 0.5 1.09375q0.5 0.4375 1.453125 0.4375q0.9375 0 1.671875 -0.40625q0.75 -0.421875 1.09375 -1.140625q0.265625 -0.5625 0.265625 -1.640625l0 -0.609375zm4.188217 4.859375l0 -9.671875l1.46875 0l0 1.46875q0.5625 -1.03125 1.03125 -1.359375q0.484375 -0.328125 1.0625 -0.328125q0.828125 0 1.6875 0.53125l-0.5625 1.515625q-0.609375 -0.359375 -1.203125 -0.359375q-0.546875 0 -0.96875 0.328125q-0.421875 0.328125 -0.609375 0.890625q-0.28125 0.875 -0.28125 1.921875l0 5.0625l-1.625 0zm6.181427 0l0 -13.359375l1.640625 0l0 13.359375l-1.640625 0zm3.5823212 -4.84375q0 -2.6875 1.484375 -3.96875q1.25 -1.078125 3.046875 -1.078125q2.0 0 3.265625 1.3125q1.265625 1.296875 1.265625 3.609375q0 1.859375 -0.5625 2.9375q-0.5625 1.0625 -1.640625 1.65625q-1.0625 0.59375 -2.328125 0.59375q-2.03125 0 -3.28125 -1.296875q-1.25 -1.3125 -1.25 -3.765625zm1.6875 0q0 1.859375 0.796875 2.796875q0.8125 0.921875 2.046875 0.921875q1.21875 0 2.03125 -0.921875q0.8125 -0.9375 0.8125 -2.84375q0 -1.796875 -0.8125 -2.71875q-0.8125 -0.921875 -2.03125 -0.921875q-1.234375 0 -2.046875 0.921875q-0.796875 0.90625 -0.796875 2.765625zm8.641342 1.953125l1.625 -0.25q0.125 0.96875 0.75 1.5q0.625 0.515625 1.75 0.515625q1.125 0 1.671875 -0.453125q0.546875 -0.46875 0.546875 -1.09375q0 -0.546875 -0.484375 -0.875q-0.328125 -0.21875 -1.671875 -0.546875q-1.8125 -0.46875 -2.515625 -0.796875q-0.6875 -0.328125 -1.046875 -0.90625q-0.359375 -0.59375 -0.359375 -1.3125q0 -0.640625 0.296875 -1.1875q0.296875 -0.5625 0.8125 -0.921875q0.375 -0.28125 1.03125 -0.46875q0.671875 -0.203125 1.421875 -0.203125q1.140625 0 2.0 0.328125q0.859375 0.328125 1.265625 0.890625q0.421875 0.5625 0.578125 1.5l-1.609375 0.21875q-0.109375 -0.75 -0.640625 -1.171875q-0.515625 -0.421875 -1.46875 -0.421875q-1.140625 0 -1.625 0.375q-0.46875 0.375 -0.46875 0.875q0 0.3125 0.1875 0.578125q0.203125 0.265625 0.640625 0.4375q0.234375 0.09375 1.4375 0.421875q1.75 0.453125 2.4375 0.75q0.6875 0.296875 1.078125 0.859375q0.390625 0.5625 0.390625 1.40625q0 0.828125 -0.484375 1.546875q-0.46875 0.71875 -1.375 1.125q-0.90625 0.390625 -2.046875 0.390625q-1.875 0 -2.875 -0.78125q-0.984375 -0.78125 -1.25 -2.328125zm19.183304 2.890625l-5.171875 -13.359375l1.921875 0l3.46875 9.703125q0.421875 1.171875 0.703125 2.1875q0.3125 -1.09375 0.71875 -2.1875l3.609375 -9.703125l1.796875 0l-5.234375 13.359375l-1.8125 0zm14.740448 -1.1875q-0.921875 0.765625 -1.765625 1.09375q-0.828125 0.3125 -1.796875 0.3125q-1.59375 0 -2.453125 -0.78125q-0.859375 -0.78125 -0.859375 -1.984375q0 -0.71875 0.328125 -1.296875q0.328125 -0.59375 0.84375 -0.9375q0.53125 -0.359375 1.1875 -0.546875q0.46875 -0.125 1.453125 -0.25q1.984375 -0.234375 2.921875 -0.5625q0.015625 -0.34375 0.015625 -0.421875q0 -1.0 -0.46875 -1.421875q-0.625 -0.546875 -1.875 -0.546875q-1.15625 0 -1.703125 0.40625q-0.546875 0.40625 -0.8125 1.421875l-1.609375 -0.21875q0.21875 -1.015625 0.71875 -1.640625q0.5 -0.640625 1.453125 -0.984375q0.953125 -0.34375 2.1875 -0.34375q1.25 0 2.015625 0.296875q0.78125 0.28125 1.140625 0.734375q0.375 0.4375 0.515625 1.109375q0.078125 0.421875 0.078125 1.515625l0 2.1875q0 2.28125 0.109375 2.890625q0.109375 0.59375 0.40625 1.15625l-1.703125 0q-0.265625 -0.515625 -0.328125 -1.1875zm-0.140625 -3.671875q-0.890625 0.375 -2.671875 0.625q-1.015625 0.140625 -1.4375 0.328125q-0.421875 0.1875 -0.65625 0.53125q-0.21875 0.34375 -0.21875 0.78125q0 0.65625 0.5 1.09375q0.5 0.4375 1.453125 0.4375q0.9375 0 1.671875 -0.40625q0.75 -0.421875 1.09375 -1.140625q0.265625 -0.5625 0.265625 -1.640625l0 -0.609375zm-3.1875 -6.015625l1.21875 -2.546875l2.15625 0l-2.015625 2.546875l-1.359375 0zm6.735092 7.984375l1.625 -0.25q0.125 0.96875 0.75 1.5q0.625 0.515625 1.75 0.515625q1.125 0 1.671875 -0.453125q0.546875 -0.46875 0.546875 -1.09375q0 -0.546875 -0.484375 -0.875q-0.328125 -0.21875 -1.671875 -0.546875q-1.8125 -0.46875 -2.515625 -0.796875q-0.6875 -0.328125 -1.046875 -0.90625q-0.359375 -0.59375 -0.359375 -1.3125q0 -0.640625 0.296875 -1.1875q0.296875 -0.5625 0.8125 -0.921875q0.375 -0.28125 1.03125 -0.46875q0.671875 -0.203125 1.421875 -0.203125q1.140625 0 2.0 0.328125q0.859375 0.328125 1.265625 0.890625q0.421875 0.5625 0.578125 1.5l-1.609375 0.21875q-0.109375 -0.75 -0.640625 -1.171875q-0.515625 -0.421875 -1.46875 -0.421875q-1.140625 0 -1.625 0.375q-0.46875 0.375 -0.46875 0.875q0 0.3125 0.1875 0.578125q0.203125 0.265625 0.640625 0.4375q0.234375 0.09375 1.4375 0.421875q1.75 0.453125 2.4375 0.75q0.6875 0.296875 1.078125 0.859375q0.390625 0.5625 0.390625 1.40625q0 0.828125 -0.484375 1.546875q-0.46875 0.71875 -1.375 1.125q-0.90625 0.390625 -2.046875 0.390625q-1.875 0 -2.875 -0.78125q-0.984375 -0.78125 -1.25 -2.328125zm16.140625 6.59375l0 -4.734375q-0.375 0.546875 -1.0625 0.90625q-0.6875 0.34375 -1.46875 0.34375q-1.71875 0 -2.96875 -1.375q-1.234375 -1.375 -1.234375 -3.765625q0 -1.46875 0.5 -2.625q0.515625 -1.15625 1.46875 -1.75q0.96875 -0.59375 2.109375 -0.59375q1.796875 0 2.828125 1.515625l0 -1.296875l1.46875 0l0 13.375l-1.640625 0zm-5.046875 -8.5625q0 1.859375 0.78125 2.796875q0.78125 0.9375 1.875 0.9375q1.046875 0 1.796875 -0.890625q0.765625 -0.890625 0.765625 -2.703125q0 -1.9375 -0.796875 -2.90625q-0.796875 -0.96875 -1.875 -0.96875q-1.0625 0 -1.8125 0.90625q-0.734375 0.90625 -0.734375 2.828125zm15.594467 4.859375l0 -1.421875q-1.125 1.640625 -3.0625 1.640625q-0.859375 0 -1.609375 -0.328125q-0.734375 -0.328125 -1.09375 -0.828125q-0.359375 -0.5 -0.5 -1.21875q-0.109375 -0.46875 -0.109375 -1.53125l0 -5.984375l1.640625 0l0 5.359375q0 1.28125 0.109375 1.734375q0.15625 0.640625 0.65625 1.015625q0.5 0.375 1.234375 0.375q0.734375 0 1.375 -0.375q0.65625 -0.390625 0.921875 -1.03125q0.265625 -0.65625 0.265625 -1.890625l0 -5.1875l1.640625 0l0 9.671875l-1.46875 0zm10.672592 -3.109375l1.6875 0.203125q-0.40625 1.484375 -1.484375 2.3125q-1.078125 0.8125 -2.765625 0.8125q-2.125 0 -3.375 -1.296875q-1.234375 -1.3125 -1.234375 -3.671875q0 -2.453125 1.25 -3.796875q1.265625 -1.34375 3.265625 -1.34375q1.9375 0 3.15625 1.328125q1.234375 1.3125 1.234375 3.703125q0 0.15625 0 0.4375l-7.21875 0q0.09375 1.59375 0.90625 2.453125q0.8125 0.84375 2.015625 0.84375q0.90625 0 1.546875 -0.46875q0.640625 -0.484375 1.015625 -1.515625zm-5.390625 -2.65625l5.40625 0q-0.109375 -1.21875 -0.625 -1.828125q-0.78125 -0.953125 -2.03125 -0.953125q-1.125 0 -1.90625 0.765625q-0.765625 0.75 -0.84375 2.015625zm8.266342 5.765625l0 -1.328125l6.15625 -7.078125q-1.046875 0.0625 -1.84375 0.0625l-3.9375 0l0 -1.328125l7.90625 0l0 1.078125l-5.25 6.140625l-1.0 1.125q1.09375 -0.078125 2.0625 -0.078125l4.46875 0l0 1.40625l-8.5625 0z" fill-rule="nonzero"/><path fill="#000000" fill-opacity="0.0" d="m889.4969 489.57657l57.606323 0l0 41.322845l-57.606323 0z" fill-rule="evenodd"/><path fill="#adadad" d="m931.31573 506.74112l0 -1.125l6.1875 0l0 0.921875q-0.921875 0.96875 -1.8125 2.578125q-0.890625 1.59375 -1.375 3.2968445q-0.359375 1.203125 -0.453125 2.625l-1.203125 0q0.015625 -1.125 0.4375 -2.71875q0.421875 -1.5937195 1.203125 -3.0780945q0.796875 -1.484375 1.6875 -2.5l-4.671875 0z" fill-rule="nonzero"/></g></svg>